<?xml version="1.0" encoding="UTF-8"?>
<svg version="1.1" xmlns="http://www.w3.org/2000/svg" width="1024" height="1024">
<path d="M0 0 C337.92 0 675.84 0 1024 0 C1024 337.92 1024 675.84 1024 1024 C686.08 1024 348.16 1024 0 1024 C0 686.08 0 348.16 0 0 Z " fill="#1F1D20" transform="translate(0,0)"/>
<path d="M0 0 C1.32475342 0.5256958 1.32475342 0.5256958 2.67626953 1.06201172 C21.88920304 8.80953282 39.500603 18.47306928 56 31 C56.87785156 31.66515625 57.75570313 32.3303125 58.66015625 33.015625 C65.44298258 38.30429466 71.75974237 44.09119212 78 50 C78.93070313 50.8765625 79.86140625 51.753125 80.8203125 52.65625 C116.66029526 87.37304242 140.98618902 139.80744779 143.16113281 189.69604492 C143.57736632 227.20787987 139.48924974 266.60905218 120.25390625 299.7734375 C118.87564018 302.22082585 117.65755861 304.7203372 116.4375 307.25 C114.63644008 310.91422535 112.57399562 313.8254054 110 317 C109.505 318.175625 109.01 319.35125 108.5 320.5625 C106.9925939 324.01697232 105.64859729 325.43166324 103 328 C102.41347656 329.05574219 101.82695313 330.11148437 101.22265625 331.19921875 C99.01673694 335.13745295 96.3520799 338.43318724 93.375 341.8125 C92.81868896 342.44704102 92.26237793 343.08158203 91.68920898 343.73535156 C81.052658 355.69875838 69.87398084 367.15981304 57.015625 376.73828125 C54.84344007 378.36741995 52.8743107 379.99427928 50.859375 381.79296875 C48 384 48 384 44 384 C43.67 384.99 43.34 385.98 43 387 C41.08569336 388.39453125 41.08569336 388.39453125 38.58984375 389.8125 C37.68169922 390.33070313 36.77355469 390.84890625 35.83789062 391.3828125 C34.88076172 391.91648437 33.92363281 392.45015625 32.9375 393 C32.00744141 393.53367187 31.07738281 394.06734375 30.11914062 394.6171875 C24.84375119 397.59780107 19.70820429 399.98570424 14 402 C12.48474999 402.74040626 10.98212759 403.50783745 9.5 404.3125 C-36.19754189 427.2985008 -96.53716598 428.43604499 -144.70703125 412.60693359 C-174.03142857 402.47616247 -200.73244189 387.50754432 -224 367 C-224.75925781 366.35160156 -225.51851563 365.70320313 -226.30078125 365.03515625 C-243.1679825 350.59159168 -258.24301831 332.42433886 -269 313 C-269.44553223 312.21093262 -269.89106445 311.42186523 -270.35009766 310.60888672 C-295.09698886 266.45586667 -306.78596574 212.9748584 -295 163 C-294.66218007 161.43399865 -294.32628792 159.86758036 -293.9921875 158.30078125 C-286.02834078 122.16690632 -269.34152746 89.79617418 -245 62 C-244.51144531 61.43700195 -244.02289063 60.87400391 -243.51953125 60.29394531 C-206.0923318 17.38895546 -151.41115962 -9.11567136 -94.85571289 -13.82568359 C-62.95029129 -15.77323177 -29.83014748 -11.87266408 0 0 Z " fill="#96D5F1" transform="translate(590,182)"/>
<path d="M0 0 C2.33436159 2.33436159 2.45531692 3.36398925 3.03515625 6.55078125 C3.20466797 7.47826172 3.37417969 8.40574219 3.54882812 9.36132812 C3.71833984 10.33521484 3.88785156 11.30910156 4.0625 12.3125 C4.23587891 13.24384766 4.40925781 14.17519531 4.58789062 15.13476562 C14.06837204 68.20366737 -0.75183775 116.88419038 -28 162 C-27.67 162.33 -27.34 162.66 -27 163 C-27 167.15242757 -29.21390731 169.2593258 -31.6875 172.375 C-32.12255859 172.93960938 -32.55761719 173.50421875 -33.00585938 174.0859375 C-35.78674859 177.6454757 -38.76622509 180.836879 -42 184 C-42.825 184.99 -43.65 185.98 -44.5 187 C-51.94407227 195.74534969 -60.03025138 203.67118241 -69.4765625 210.22265625 C-71.98186119 211.98722421 -74.3459452 213.83655639 -76.6875 215.8125 C-77.33074219 216.35519531 -77.97398437 216.89789062 -78.63671875 217.45703125 C-80.33106174 219.03153851 -80.33106174 219.03153851 -80 222 C-81.765625 223.359375 -81.765625 223.359375 -84.25 224.75 C-85.1678125 225.27078125 -86.085625 225.7915625 -87.03125 226.328125 C-88.0109375 226.87984375 -88.990625 227.4315625 -90 228 C-90.9384375 228.57234375 -91.876875 229.1446875 -92.84375 229.734375 C-100.28104209 234.25272987 -107.91260105 237.8119297 -116 241 C-116.68384766 241.27312012 -117.36769531 241.54624023 -118.07226562 241.82763672 C-127.78917235 245.6744609 -137.64534736 248.92168103 -147.6875 251.8125 C-148.67145752 252.1024585 -149.65541504 252.39241699 -150.66918945 252.69116211 C-166.01014279 256.97350309 -181.314433 257.3785527 -197.125 257.3125 C-198.07532104 257.31001251 -199.02564209 257.30752502 -200.00476074 257.30496216 C-222.70656315 257.21300271 -242.47407986 254.39566162 -264 247 C-264.93763184 246.6788623 -265.87526367 246.35772461 -266.84130859 246.02685547 C-269.52552604 245.09710819 -272.20210072 244.14926439 -274.875 243.1875 C-275.68412842 242.8977832 -276.49325684 242.60806641 -277.3269043 242.30957031 C-282.87821489 240.24357023 -282.87821489 240.24357023 -284 238 C-282.68 238.33 -281.36 238.66 -280 239 C-280 238.34 -280 237.68 -280 237 C-279.01 237 -278.02 237 -277 237 C-277 236.34 -277 235.68 -277 235 C-278.32451172 234.34644531 -278.32451172 234.34644531 -279.67578125 233.6796875 C-301.25489236 222.99139266 -321.55356817 210.78326337 -339 194 C-339.8652832 193.18934082 -339.8652832 193.18934082 -340.74804688 192.36230469 C-366.52077807 168.14640345 -366.52077807 168.14640345 -371 154 C-369.989375 154.55558594 -368.97875 155.11117187 -367.9375 155.68359375 C-362.19669592 158.54768999 -356.12570301 160.45678251 -350.03076172 162.40942383 C-348.02814775 163.05344792 -346.0317276 163.71447014 -344.03515625 164.37695312 C-292.88089508 181.05980185 -239.31006636 167.91782996 -190.61328125 149.11328125 C-174.62797274 143 -174.62797274 143 -171 143 C-171 142.34 -171 141.68 -171 141 C-170.22140625 140.70609375 -169.4428125 140.4121875 -168.640625 140.109375 C-146.15515939 131.09446483 -125.98129317 116.19994493 -106.37744141 102.1784668 C-101.23820941 98.52559872 -96.03230556 94.97765248 -90.8046875 91.453125 C-90.06262558 90.95268173 -89.32056366 90.45223846 -88.55601501 89.93663025 C-84.80086774 87.40593015 -81.04251953 84.88011681 -77.28051758 82.35961914 C-66.25768452 74.95648987 -55.60208719 67.21602089 -45.3125 58.8125 C-40.06234054 54.56381605 -34.75395442 50.55528891 -29 47 C-28.76925781 47.54269531 -28.53851562 48.08539063 -28.30078125 48.64453125 C-26.73754573 52.07376333 -25.50074307 54.56514417 -22.625 57.0625 C-19.19268809 58.28832568 -17.45864937 58.15288312 -14 57 C-10.5144106 54.36644356 -9.2050405 52.71764175 -8 48.5 C-8 44.5736584 -8.57265867 43.03417666 -11 40 C-11.99 39.34 -12.98 38.68 -14 38 C-14 37.34 -14 36.68 -14 36 C-16.31 36 -18.62 36 -21 36 C-19.50689453 32.71215159 -17.59085619 30.09265216 -15.375 27.25 C-11.0367491 21.38664451 -7.89840627 15.16793379 -4.76171875 8.6015625 C-3.33692116 5.62421072 -1.75587143 2.79858892 0 0 Z " fill="#2B9CD7" transform="translate(710,339)"/>
<path d="M0 0 C1.32475342 0.5256958 1.32475342 0.5256958 2.67626953 1.06201172 C21.88920304 8.80953282 39.500603 18.47306928 56 31 C56.87785156 31.66515625 57.75570313 32.3303125 58.66015625 33.015625 C65.44298258 38.30429466 71.75974237 44.09119212 78 50 C78.93070313 50.8765625 79.86140625 51.753125 80.8203125 52.65625 C116.66029526 87.37304242 140.98618902 139.80744779 143.16113281 189.69604492 C143.57736632 227.20787987 139.48924974 266.60905218 120.25390625 299.7734375 C118.87564018 302.22082585 117.65755861 304.7203372 116.4375 307.25 C114.63644008 310.91422535 112.57399562 313.8254054 110 317 C109.505 318.175625 109.01 319.35125 108.5 320.5625 C106.9925939 324.01697232 105.64859729 325.43166324 103 328 C102.41347656 329.05574219 101.82695313 330.11148437 101.22265625 331.19921875 C99.01673694 335.13745295 96.3520799 338.43318724 93.375 341.8125 C92.81868896 342.44704102 92.26237793 343.08158203 91.68920898 343.73535156 C81.052658 355.69875838 69.87398084 367.15981304 57.015625 376.73828125 C54.84344007 378.36741995 52.8743107 379.99427928 50.859375 381.79296875 C48 384 48 384 44 384 C43.67 384.99 43.34 385.98 43 387 C41.08569336 388.39453125 41.08569336 388.39453125 38.58984375 389.8125 C37.68169922 390.33070313 36.77355469 390.84890625 35.83789062 391.3828125 C34.88076172 391.91648437 33.92363281 392.45015625 32.9375 393 C32.00744141 393.53367187 31.07738281 394.06734375 30.11914062 394.6171875 C24.84375119 397.59780107 19.70820429 399.98570424 14 402 C12.48474999 402.74040626 10.98212759 403.50783745 9.5 404.3125 C-36.19754189 427.2985008 -96.53716598 428.43604499 -144.70703125 412.60693359 C-174.03142857 402.47616247 -200.73244189 387.50754432 -224 367 C-224.75925781 366.35160156 -225.51851563 365.70320313 -226.30078125 365.03515625 C-243.1679825 350.59159168 -258.24301831 332.42433886 -269 313 C-269.44553223 312.21093262 -269.89106445 311.42186523 -270.35009766 310.60888672 C-295.09698886 266.45586667 -306.78596574 212.9748584 -295 163 C-294.66218007 161.43399865 -294.32628792 159.86758036 -293.9921875 158.30078125 C-286.02834078 122.16690632 -269.34152746 89.79617418 -245 62 C-244.51144531 61.43700195 -244.02289063 60.87400391 -243.51953125 60.29394531 C-206.0923318 17.38895546 -151.41115962 -9.11567136 -94.85571289 -13.82568359 C-62.95029129 -15.77323177 -29.83014748 -11.87266408 0 0 Z M-173 24 C-174.13179688 24.58523437 -175.26359375 25.17046875 -176.4296875 25.7734375 C-193.52745116 34.6642746 -208.604271 46.24333721 -222.46972656 59.53710938 C-223.90281139 60.90709091 -225.35317025 62.25893834 -226.8046875 63.609375 C-237.91892257 74.24038246 -247.14502664 86.80364476 -255 100 C-255.55429687 100.88171875 -256.10859375 101.7634375 -256.6796875 102.671875 C-258.16443571 104.84387653 -258.16443571 104.84387653 -258 107 C-258.99 107.495 -258.99 107.495 -260 108 C-260.99426374 109.70806083 -260.99426374 109.70806083 -262 112 C-262.81984375 113.69576172 -262.81984375 113.69576172 -263.65625 115.42578125 C-264.27152434 116.72102615 -264.886089 118.01660836 -265.5 119.3125 C-265.96212891 120.2705957 -265.96212891 120.2705957 -266.43359375 121.24804688 C-268.40502913 125.42359777 -269.78947141 129.52911439 -271 134 C-271.515625 135.19625 -272.03125 136.3925 -272.5625 137.625 C-273.80145973 140.53386197 -274.44757786 142.9222195 -275 146 C-275.65438441 148.00405227 -276.32060826 150.00428677 -277 152 C-277.66344479 154.3589148 -278.10417256 156.63805692 -278.5 159.0625 C-279 162 -279 162 -280 165 C-280.57920661 167.67883056 -281.05834037 170.35733478 -281.5 173.0625 C-282.08727502 176.51274075 -282.89370304 179.68110913 -284 183 C-283.67 183.33 -283.34 183.66 -283 184 C-282.95919217 185.99958364 -282.95745644 188.00045254 -283 190 C-283.33 190 -283.66 190 -284 190 C-284 191.65 -284 193.3 -284 195 C-283.34 195 -282.68 195 -282 195 C-282.495 195.99 -282.495 195.99 -283 197 C-285.43323947 233.3582129 -274.26766425 268.9667599 -258 301 C-257.34 301 -256.68 301 -256 301 C-255.896875 301.721875 -255.79375 302.44375 -255.6875 303.1875 C-254.9103585 306.36671524 -253.80500575 308.26137059 -252 311 C-251.59910156 311.62519531 -251.19820313 312.25039063 -250.78515625 312.89453125 C-244.02629267 323.2855819 -236.55187005 333.02550846 -228 342 C-227.43925781 342.59329102 -226.87851562 343.18658203 -226.30078125 343.79785156 C-213.84298233 356.90204571 -200.48012605 367.64387986 -185 377 C-184.23042969 377.48597656 -183.46085937 377.97195313 -182.66796875 378.47265625 C-175.06418388 383.20137819 -167.03364398 387.06764389 -159 391 C-158.34 391.33 -157.68 391.66 -157 392 C-157 392.66 -157 393.32 -157 394 C-157.99 394 -158.98 394 -160 394 C-160 394.66 -160 395.32 -160 396 C-161.32 395.67 -162.64 395.34 -164 395 C-161.91427963 397.30135992 -160.19592013 398.53724412 -157.2890625 399.61328125 C-156.55002686 399.88881836 -155.81099121 400.16435547 -155.04956055 400.44824219 C-154.24945557 400.73344727 -153.44935059 401.01865234 -152.625 401.3125 C-151.78428955 401.61446289 -150.9435791 401.91642578 -150.07739258 402.22753906 C-125.75392974 410.80779837 -103.17952921 414.24719995 -77.4375 414.375 C-76.53578064 414.3830365 -75.63406128 414.391073 -74.70501709 414.39935303 C-56.74562805 414.52055962 -39.13617529 412.99363685 -22 407.3125 C-20.91460938 406.96364746 -19.82921875 406.61479492 -18.7109375 406.25537109 C-15.46419919 405.19704466 -12.23057175 404.1066019 -9 403 C-8.03964844 402.67338379 -7.07929687 402.34676758 -6.08984375 402.01025391 C6.72085873 397.58461566 18.39081651 391.97365281 30 385 C30.60714844 384.64454102 31.21429687 384.28908203 31.83984375 383.92285156 C36.58902261 381.20621881 36.58902261 381.20621881 41 378 C41 377.01 41 376.02 41 375 C42.95515918 373.1014689 44.88878517 371.39557999 47 369.6875 C47.55300781 369.22666016 48.10601563 368.76582031 48.67578125 368.29101562 C51.68497748 365.80410517 54.75423525 363.44432565 57.9140625 361.15234375 C62.45463466 357.77100836 66.40033864 353.89440426 70.375 349.875 C71.08527344 349.17246094 71.79554688 348.46992187 72.52734375 347.74609375 C73.20667969 347.06417969 73.88601563 346.38226562 74.5859375 345.6796875 C75.49931885 344.76292236 75.49931885 344.76292236 76.43115234 343.82763672 C78.02407976 341.97194817 78.92293611 340.18008792 80 338 C81.66666667 336.66666667 83.33333333 335.33333333 85 334 C86.67962126 331.93852526 88.26488505 329.90275558 89.8125 327.75 C90.21919922 327.19570313 90.62589844 326.64140625 91.04492188 326.0703125 C92.03591711 324.71789547 93.01881466 323.35955093 94 322 C93.67 321.34 93.34 320.68 93 320 C93 315.69901065 95.30958156 312.87099008 97.5 309.3125 C108.15607032 291.49396756 117.43240166 272.44058889 121.57324219 251.94067383 C122 250 122 250 123.0234375 247.0390625 C131.55820545 220.47886464 128.92463199 185.83294896 122 159 C121.34 158.34 120.68 157.68 120 157 C119.67 156.67 119.34 156.34 119 156 C119.20076828 154.51671193 119.43657364 153.03813117 119.6875 151.5625 C120.25422638 146.5265263 119.34114044 143.25413772 117.203125 138.71484375 C116.19186655 136.43294562 115.41849764 134.24785232 114.66796875 131.875 C107.95791551 111.39179085 96.03020148 92.25767677 82 76 C81.04673828 74.88238281 81.04673828 74.88238281 80.07421875 73.7421875 C77.76732872 71.10946555 75.39796631 68.55021814 73 66 C72.45907715 65.41976074 71.9181543 64.83952148 71.36083984 64.24169922 C34.47104243 24.97256532 -17.3281871 2.47877433 -71 0 C-105.97629334 -1.01876431 -142.35964438 7.03962092 -173 24 Z " fill="#88CBEB" transform="translate(590,182)"/>
<path d="M0 0 C0.80566406 0.09023438 1.61132812 0.18046875 2.44140625 0.2734375 C4.4375 0.625 4.4375 0.625 5.4375 1.625 C6.23695881 5.12871511 6.27743598 8.12609511 5.4375 11.625 C3.29163839 14.26606044 0.95346432 16.21216694 -1.703125 18.3359375 C-4.58697926 20.64459678 -7.11315401 23.10370024 -9.6875 25.75 C-12.35667811 28.49306539 -15.07663187 31.07994806 -17.9909668 33.55566406 C-23.69647311 38.53299863 -28.9869776 43.92528226 -34.32421875 49.2890625 C-35.44401862 50.41073264 -36.56404332 51.53217837 -37.6842804 52.65341187 C-40.61242773 55.58534814 -43.53756124 58.52027282 -46.46203613 61.45587158 C-49.43445948 64.43854326 -52.40972683 67.41837498 -55.38476562 70.3984375 C-60.61840221 75.64160178 -65.8495652 80.88722265 -71.0789032 86.13467407 C-73.57118387 88.6337074 -76.06684111 91.12934111 -78.5625 93.625 C-80.2101207 95.28337217 -81.85724097 96.94224165 -83.50390625 98.6015625 C-84.89983131 100.00438345 -86.29576423 101.40719667 -87.69213867 102.80957031 C-88.65006077 103.77255215 -89.60708786 104.7364251 -90.56323242 105.70117188 C-91.95773438 107.10784143 -93.35577965 108.51099552 -94.75390625 109.9140625 C-95.58092041 110.74631348 -96.40793457 111.57856445 -97.26000977 112.43603516 C-99.5625 114.625 -99.5625 114.625 -101.8359375 116.26611328 C-103.82502351 117.52117639 -103.82502351 117.52117639 -103.99609375 120.078125 C-103.99802734 121.46257812 -103.99802734 121.46257812 -104 122.875 C-104.34662583 128.46526345 -105.40917468 131.79956878 -109.5625 135.625 C-114.90654635 139.84228959 -120.03919321 141.50999753 -126.84765625 141.17578125 C-132.9273131 139.94235447 -137.11408895 136.41645577 -140.9375 131.6875 C-142.5625 128.625 -142.5625 128.625 -143.64453125 125.28125 C-145.69951359 120.48188407 -149.49789334 118.58952595 -153.875 116.0625 C-155.60089236 115.02057732 -157.32612678 113.97756419 -159.05078125 112.93359375 C-160.40550537 112.12510986 -160.40550537 112.12510986 -161.78759766 111.30029297 C-166.43423873 108.49497438 -170.99311547 105.55382392 -175.5625 102.625 C-177.43057494 101.43554645 -179.29906224 100.24674029 -181.16796875 99.05859375 C-184.54776567 96.90835915 -187.92516148 94.75444048 -191.30078125 92.59765625 C-201.34513036 86.19880434 -211.50209882 80.01304313 -221.76098633 73.96313477 C-240.57451855 62.7953054 -240.57451855 62.7953054 -242.5625 57.625 C-243.04971029 54.37693139 -242.8618237 53.08645738 -241.0625 50.3125 C-238.28819584 48.43984469 -236.38437497 48.04551616 -233.05615234 48.12719727 C-227.37800487 49.26071427 -222.52126799 52.78634456 -217.625 55.75 C-216.38826109 56.481172 -215.15036715 57.21039354 -213.91137695 57.93774414 C-212.00736165 59.05601487 -210.10427396 60.17562583 -208.2049408 61.30183411 C-201.95199215 65.00842961 -195.60848274 68.53998546 -189.25 72.0625 C-179.2249792 77.65327285 -169.33143762 83.40691818 -159.58886719 89.47802734 C-156.78023026 91.22732419 -153.96560756 92.96578746 -151.14526367 94.69607544 C-149.46581703 95.73252451 -147.79627334 96.78496528 -146.12695312 97.83764648 C-144.57524414 98.78812866 -144.57524414 98.78812866 -142.9921875 99.7578125 C-142.06647949 100.33418457 -141.14077148 100.91055664 -140.18701172 101.50439453 C-137.1149483 102.81609417 -135.69158755 102.66894553 -132.5625 101.625 C-132.2325 101.295 -131.9025 100.965 -131.5625 100.625 C-129.2726179 100.52543991 -126.97954063 100.4953128 -124.6875 100.5 C-123.43195313 100.49742187 -122.17640625 100.49484375 -120.8828125 100.4921875 C-117.5625 100.625 -117.5625 100.625 -114.5625 101.625 C-113.86125 100.91214844 -113.16 100.19929688 -112.4375 99.46484375 C-107.56349142 94.5356447 -102.66637909 89.73806751 -97.390625 85.234375 C-95.53312012 83.59913566 -93.79643991 81.89018207 -92.0625 80.125 C-89.14119212 77.15784199 -86.08258327 74.42441029 -82.9296875 71.70703125 C-79.92528275 69.06454325 -76.99494533 66.34681846 -74.0625 63.625 C-70.62135397 60.43295804 -67.18001128 57.25321941 -63.625 54.1875 C-59.21205513 50.37419095 -54.97323102 46.37584208 -50.7109375 42.39624023 C-47.55960282 39.45973061 -44.38882087 36.56210297 -41.125 33.75 C-38.07680464 31.12246854 -35.25028938 28.3368337 -32.43432617 25.46386719 C-30.63777619 23.69895073 -28.78387321 22.06234672 -26.8671875 20.4296875 C-22.42841642 16.57157556 -18.3054384 12.44519803 -14.1875 8.25 C-12.78617253 6.82324009 -11.3826365 5.39864493 -9.9765625 3.9765625 C-9.06318115 3.04577881 -9.06318115 3.04577881 -8.13134766 2.09619141 C-5.33354644 -0.52745473 -3.68514521 -0.4377219 0 0 Z " fill="#1289C9" transform="translate(636.5625,268.375)"/>
<path d="M0 0 C6.03195105 2.70200962 9.28595043 7.13765293 12 13 C14.16131189 20.00613183 13.74786705 28.09180887 11.18359375 34.92578125 C8.3423145 39.9050528 3.30408716 43.88035541 -2 46 C-4.5859375 46.3359375 -4.5859375 46.3359375 -7.375 46.375 C-8.74785156 46.41753906 -8.74785156 46.41753906 -10.1484375 46.4609375 C-13 46 -13 46 -19 42 C-19.33 48.93 -19.66 55.86 -20 63 C-23.96 63 -27.92 63 -32 63 C-32 42.54 -32 22.08 -32 1 C-28.37 1 -24.74 1 -21 1 C-20.67 2.32 -20.34 3.64 -20 5 C-19.113125 4.175 -18.22625 3.35 -17.3125 2.5 C-12.02123399 -1.25335739 -6.21161424 -1.07361234 0 0 Z " fill="#F3F3F3" transform="translate(409,669)"/>
<path d="M0 0 C0.99 0 1.98 0 3 0 C3 4.15242757 0.78609269 6.2593258 -1.6875 9.375 C-2.34008789 10.22191406 -2.34008789 10.22191406 -3.00585938 11.0859375 C-5.78674859 14.6454757 -8.76622509 17.836879 -12 21 C-12.825 21.99 -13.65 22.98 -14.5 24 C-21.94407227 32.74534969 -30.03025138 40.67118241 -39.4765625 47.22265625 C-41.98186119 48.98722421 -44.3459452 50.83655639 -46.6875 52.8125 C-47.33074219 53.35519531 -47.97398437 53.89789062 -48.63671875 54.45703125 C-50.33106174 56.03153851 -50.33106174 56.03153851 -50 59 C-51.765625 60.359375 -51.765625 60.359375 -54.25 61.75 C-55.1678125 62.27078125 -56.085625 62.7915625 -57.03125 63.328125 C-58.0109375 63.87984375 -58.990625 64.4315625 -60 65 C-60.9384375 65.57234375 -61.876875 66.1446875 -62.84375 66.734375 C-70.28104209 71.25272987 -77.91260105 74.8119297 -86 78 C-86.68384766 78.27312012 -87.36769531 78.54624023 -88.07226562 78.82763672 C-97.78917235 82.6744609 -107.64534736 85.92168103 -117.6875 88.8125 C-118.67145752 89.1024585 -119.65541504 89.39241699 -120.66918945 89.69116211 C-136.01014279 93.97350309 -151.314433 94.3785527 -167.125 94.3125 C-168.07532104 94.31001251 -169.02564209 94.30752502 -170.00476074 94.30496216 C-192.70656315 94.21300271 -212.47407986 91.39566162 -234 84 C-234.93763184 83.6788623 -235.87526367 83.35772461 -236.84130859 83.02685547 C-239.52552604 82.09710819 -242.20210072 81.14926439 -244.875 80.1875 C-245.68412842 79.8977832 -246.49325684 79.60806641 -247.3269043 79.30957031 C-252.87821489 77.24357023 -252.87821489 77.24357023 -254 75 C-252.68 75.33 -251.36 75.66 -250 76 C-250 75.34 -250 74.68 -250 74 C-249.01 74 -248.02 74 -247 74 C-247 73.01 -247 72.02 -247 71 C-245.67699577 71.43984088 -244.35410303 71.88001711 -243.03125 72.3203125 C-242.20496094 72.59520508 -241.37867188 72.87009766 -240.52734375 73.15332031 C-238.29545647 73.9010198 -236.06947798 74.663926 -233.84375 75.4296875 C-224.67377168 78.51695575 -215.48905673 80.90931962 -206 82.8125 C-204.97455078 83.0192334 -203.94910156 83.2259668 -202.89257812 83.43896484 C-153.15984566 93.00728506 -99.07385048 81.63843912 -56.8125 54.0625 C-37.84596989 41.02142789 -20.47750551 26.54034539 -6.4453125 8.19921875 C-6.03055664 7.65958496 -5.61580078 7.11995117 -5.18847656 6.56396484 C-4.06342385 5.08346203 -2.96445736 3.58324111 -1.8671875 2.08203125 C-1.25101563 1.39496094 -0.63484375 0.70789063 0 0 Z " fill="#5FB6E0" transform="translate(680,502)"/>
<path d="M0 0 C5.99095896 2.03967 10.47672319 6.85528438 14 12 C16.10667143 18.3200143 16.24832255 27.34112355 14.09375 33.65625 C10.56792206 39.5326299 5.51534625 43.81538612 -1 46 C-9.23552115 46.9478851 -15.74430566 45.6114488 -22.75 41.3125 C-26.78816635 37.16216236 -29.4343601 31.79780892 -30 26 C-30.07476563 25.35546875 -30.14953125 24.7109375 -30.2265625 24.046875 C-30.66438072 17.45655861 -28.81248612 12.3684172 -25 7 C-17.31916607 -0.25493683 -10.26334186 -0.92338236 0 0 Z " fill="#F6F6F6" transform="translate(767,669)"/>
<path d="M0 0 C4.33948728 2.63980288 7.08822518 5.75295678 8.72265625 10.65625 C8.80733795 13.16993055 8.8386751 15.65494374 8.8203125 18.16796875 C8.81889755 18.89619339 8.8174826 19.62441803 8.81602478 20.37471008 C8.81043284 22.69776539 8.79788187 25.02072388 8.78515625 27.34375 C8.78014021 28.91992048 8.77557748 30.49609248 8.77148438 32.07226562 C8.76046605 35.93363098 8.74320699 39.79492408 8.72265625 43.65625 C5.42265625 43.65625 2.12265625 43.65625 -1.27734375 43.65625 C-1.93734375 42.33625 -2.59734375 41.01625 -3.27734375 39.65625 C-3.73882812 40.0171875 -4.2003125 40.378125 -4.67578125 40.75 C-9.43990798 44.13949728 -13.07812816 45.39747127 -18.9453125 45.08203125 C-23.43002813 44.26321382 -26.15501437 41.93338344 -29.08984375 38.59375 C-31.51693576 34.63375777 -31.66329852 31.21051632 -31.27734375 26.65625 C-29.02328844 21.65812735 -26.08160881 19.34376199 -21.13671875 17.3359375 C-15.28869927 15.94583451 -9.24235706 16.37332447 -3.27734375 16.65625 C-4.04764497 13.16815809 -4.04764497 13.16815809 -5.27734375 9.65625 C-9.31528852 8.31026841 -13.0515908 8.20242794 -17.27734375 8.65625 C-20.07632318 10.11736016 -20.07632318 10.11736016 -22.27734375 11.65625 C-25.70032952 10.51525474 -26.42493141 9.65539379 -28.27734375 6.65625 C-28.27734375 5.66625 -28.27734375 4.67625 -28.27734375 3.65625 C-19.82012177 -1.91556683 -9.62615355 -3.94683769 0 0 Z " fill="#F4F4F4" transform="translate(264.27734375,670.34375)"/>
<path d="M0 0 C1.0211792 -0.02755371 1.0211792 -0.02755371 2.06298828 -0.05566406 C7.1196729 0.00583782 9.97526905 1.36413388 13.875 4.5 C18.33649991 9.56440531 19.01912679 12.52964341 18.97265625 19.1328125 C18.9712413 19.88464813 18.96982635 20.63648376 18.96836853 21.41110229 C18.96276465 23.8157751 18.95021157 26.22035527 18.9375 28.625 C18.9324855 30.25390491 18.9279225 31.88281127 18.92382812 33.51171875 C18.91279397 37.50784827 18.89552679 41.50390842 18.875 45.5 C15.575 45.5 12.275 45.5 8.875 45.5 C8.875 43.85 8.875 42.2 8.875 40.5 C8.215 40.5 7.555 40.5 6.875 40.5 C6.545 41.49 6.215 42.48 5.875 43.5 C0.45637149 46.61282914 -4.92797367 47.71623881 -11.125 46.5 C-15.37582654 44.28399534 -18.58457622 42.12127133 -20.125 37.5 C-20.70523097 32.68408295 -21.13630302 28.07356099 -18.0625 24.0625 C-10.40311289 17.38090699 -2.74890519 18.16557858 6.875 18.5 C6.27638258 16.14828869 5.60575648 13.8140622 4.875 11.5 C1.44056776 9.78278388 -2.36162696 10.10144834 -6.125 10.5 C-8.87072728 11.97987963 -8.87072728 11.97987963 -11.125 13.5 C-13.25 13.4375 -13.25 13.4375 -15.125 12.5 C-16.875 10.4375 -16.875 10.4375 -18.125 8.5 C-16.49592556 4.73573092 -14.66730022 3.02235231 -10.875 1.265625 C-7.25537027 0.25788718 -3.73299388 0.05628915 0 0 Z " fill="#F6F6F7" transform="translate(448.125,668.5)"/>
<path d="M0 0 C1.30453125 -0.03738281 2.6090625 -0.07476563 3.953125 -0.11328125 C8.96471316 0.44871783 11.79001661 2.40960351 15.359375 5.875 C21.30526732 13.36845333 20.75 15.47716695 20.75 26.3125 C10.52 26.3125 0.29 26.3125 -10.25 26.3125 C-7.90918746 31.58157998 -7.90918746 31.58157998 -4.25 35.3125 C1.79267831 37.16277747 6.15249635 36.11125183 11.75 33.3125 C14.6875 32.625 14.6875 32.625 16.75 32.3125 C19.75 36.9375 19.75 36.9375 19.75 40.3125 C12.04771113 46.3642984 4.26841376 47.23288517 -5.25 46.3125 C-11.44603109 44.63545431 -15.78203339 40.62489471 -19.25 35.3125 C-22.49906022 28.87001415 -22.50367429 19.96220338 -20.6328125 13.0234375 C-16.32265655 4.6701264 -8.9940655 0.16753651 0 0 Z " fill="#F7F7F7" transform="translate(529.25,668.6875)"/>
<path d="M0 0 C2.11714386 1.60902933 3.47062421 3.28877256 4.953125 5.484375 C3.6783041 8.32820623 2.50175422 10.62191518 -0.046875 12.484375 C-2.7257184 12.29962718 -4.26591481 11.34747512 -6.546875 9.921875 C-11.70651661 7.80273648 -16.54300007 7.80488427 -22.046875 8.484375 C-26.58549425 10.63424728 -28.89941431 12.96340512 -31.046875 17.484375 C-33.24387438 24.35386601 -33.43517869 33.53608486 -30.359375 40.109375 C-27.80544032 44.33876329 -24.75205844 46.91598052 -20.046875 48.484375 C-13.47129426 49.04162761 -9.6937152 47.73486705 -4.046875 44.484375 C-2.71728156 43.81028042 -1.38491109 43.14155202 -0.046875 42.484375 C1.933125 44.134375 3.913125 45.784375 5.953125 47.484375 C4.4244824 51.61171003 1.61599468 54.20458059 -2.046875 56.484375 C-9.75477779 59.94058764 -18.5872061 61.11754185 -26.75 58.67578125 C-34.83418945 55.09245188 -41.15034625 48.73191132 -44.46459961 40.48339844 C-47.05409628 31.59333607 -46.38284245 19.91707169 -42.484375 11.609375 C-39.67183911 6.94371967 -36.67352269 3.37722718 -32.046875 0.484375 C-31.41394531 0.07445312 -30.78101563 -0.33546875 -30.12890625 -0.7578125 C-20.71992898 -5.87714347 -9.1950769 -5.06667503 0 0 Z " fill="#F6F6F6" transform="translate(704.046875,655.515625)"/>
<path d="M0 0 C3.3 0 6.6 0 10 0 C12.03123075 2.03123075 11.25669618 6.17768866 11.31640625 8.97265625 C11.33718735 9.77029892 11.35796844 10.56794159 11.37937927 11.38975525 C11.44496158 13.94724611 11.50379967 16.5048428 11.5625 19.0625 C11.60567699 20.79232882 11.64929101 22.52214679 11.69335938 24.25195312 C11.80065172 28.5011926 11.90189426 32.7505389 12 37 C12.41362793 36.5560791 12.82725586 36.1121582 13.25341797 35.65478516 C15.12690534 33.64450848 17.00094614 31.63474857 18.875 29.625 C19.52597656 28.92632813 20.17695312 28.22765625 20.84765625 27.5078125 C21.47285156 26.8375 22.09804688 26.1671875 22.7421875 25.4765625 C23.3182373 24.85861816 23.89428711 24.24067383 24.48779297 23.60400391 C27.87815801 20.00783046 27.87815801 20.00783046 31.0390625 19.8046875 C32.81410156 19.83949219 32.81410156 19.83949219 34.625 19.875 C36.40777344 19.90207031 36.40777344 19.90207031 38.2265625 19.9296875 C39.14179687 19.95289063 40.05703125 19.97609375 41 20 C38.25818015 23.23394136 35.51730794 26.44257082 32.6328125 29.55078125 C31.82585938 30.42089844 31.01890625 31.29101562 30.1875 32.1875 C29.41792969 33.00605469 28.64835938 33.82460938 27.85546875 34.66796875 C25.9970526 37.00370442 25.32979034 38.08948023 25 41 C25.88956923 42.83420255 25.88956923 42.83420255 27.38671875 44.49609375 C27.91330078 45.13740234 28.43988281 45.77871094 28.98242188 46.43945312 C29.54509766 47.09880859 30.10777344 47.75816406 30.6875 48.4375 C31.23083984 49.09298828 31.77417969 49.74847656 32.33398438 50.42382812 C34.66357464 53.23229426 37.0156696 56.01822582 39.39453125 58.78515625 C41 61 41 61 41 64 C36.84616815 64.62307478 33.1359231 64.82210987 29 64 C25.51476312 61.17780818 23.33033944 57.79958348 21 54 C20.47277344 53.19304688 19.94554687 52.38609375 19.40234375 51.5546875 C18.22754079 49.72867064 17.10692875 47.86794227 16 46 C13.90628782 46.39662601 13.90628782 46.39662601 12 48 C11.53411453 50.82517725 11.30384499 53.29079561 11.25 56.125 C11.22035156 56.87910156 11.19070313 57.63320313 11.16015625 58.41015625 C11.08942068 60.27285953 11.04245017 62.13643755 11 64 C7.37 64 3.74 64 0 64 C0 42.88 0 21.76 0 0 Z " fill="#F8F8F9" transform="translate(834,650)"/>
<path d="M0 0 C16.83 0 33.66 0 51 0 C51 3.3 51 6.6 51 10 C44.4 10 37.8 10 31 10 C31 26.83 31 43.66 31 61 C27.37 61 23.74 61 20 61 C19 60 19 60 18.87974548 57.98155212 C18.88196609 57.09552811 18.88418671 56.20950409 18.88647461 55.29663086 C18.88655014 54.29566879 18.88662567 53.29470673 18.88670349 52.26341248 C18.89186478 51.1748848 18.89702606 50.08635712 18.90234375 48.96484375 C18.9037587 47.85645645 18.90517365 46.74806915 18.90663147 45.60609436 C18.91224967 42.04986931 18.92480525 38.49370617 18.9375 34.9375 C18.94251266 32.53320403 18.94707597 30.12890708 18.95117188 27.72460938 C18.96222501 21.81638223 18.97950184 15.90820163 19 10 C12.73 10 6.46 10 0 10 C0 6.7 0 3.4 0 0 Z " fill="#F9F9F9" transform="translate(148,653)"/>
<path d="M0 0 C4.004793 2.0023965 6.6587028 4.17998877 9 8 C10.21077701 11.63233102 10.12444164 14.95121987 10.09765625 18.73046875 C10.0962413 19.48088943 10.09482635 20.23131012 10.09336853 21.00447083 C10.0877756 23.3988546 10.07522444 25.79314453 10.0625 28.1875 C10.05748408 29.81184761 10.05292134 31.43619668 10.04882812 33.06054688 C10.03780848 37.04040069 10.02054873 41.02018444 10 45 C6.37 45 2.74 45 -1 45 C-1.01458252 44.14768799 -1.02916504 43.29537598 -1.04418945 42.41723633 C-1.10543285 39.23928825 -1.17962029 36.06197454 -1.26245117 32.88452148 C-1.29559806 31.51224042 -1.32366171 30.13982638 -1.34643555 28.76733398 C-1.38016766 26.78862234 -1.4340149 24.81028624 -1.48828125 22.83203125 C-1.51446533 21.64327393 -1.54064941 20.4545166 -1.56762695 19.22973633 C-2.03518122 15.73720366 -2.88468776 13.79449654 -5 11 C-7.11919643 10.21432768 -7.11919643 10.21432768 -9.4375 10.375 C-10.58025391 10.35566406 -10.58025391 10.35566406 -11.74609375 10.3359375 C-15.10311361 11.32500748 -16.10001809 13.11029646 -18 16 C-18.63635465 19.27597454 -18.63635465 19.27597454 -18.609375 22.83203125 C-18.64160156 24.12431641 -18.67382812 25.41660156 -18.70703125 26.74804688 C-18.7217735 28.10286009 -18.73609112 29.45767798 -18.75 30.8125 C-18.77817759 32.18688639 -18.80810754 33.56123805 -18.83984375 34.93554688 C-18.91047274 38.2904241 -18.96320774 41.64460896 -19 45 C-22.63 45 -26.26 45 -30 45 C-30 30.48 -30 15.96 -30 1 C-26.7 1 -23.4 1 -20 1 C-20 2.65 -20 4.3 -20 6 C-19.34 6 -18.68 6 -18 6 C-17.67 5.01 -17.34 4.02 -17 3 C-11.77952259 -0.70928658 -6.16582557 -0.83495555 0 0 Z " fill="#F9F9F9" transform="translate(589,669)"/>
<path d="M0 0 C3.74932912 2.07336172 6.25897685 4.78581789 8.54296875 8.40625 C9.29715647 11.2971171 9.25139946 13.99295924 9.12890625 16.96484375 C9.12041656 17.75399673 9.11192688 18.54314972 9.10317993 19.35621643 C9.06984332 21.85350616 8.99461475 24.34745249 8.91796875 26.84375 C8.88784303 28.546177 8.8604718 30.24865511 8.8359375 31.95117188 C8.77011866 36.10413426 8.6667462 40.25462726 8.54296875 44.40625 C4.91296875 44.40625 1.28296875 44.40625 -2.45703125 44.40625 C-2.46114014 43.52364502 -2.46524902 42.64104004 -2.46948242 41.73168945 C-2.49653109 38.4414896 -2.54568076 35.15313602 -2.60961914 31.86352539 C-2.63274628 30.44274298 -2.64718251 29.02179042 -2.65258789 27.60083008 C-2.66191786 25.55182534 -2.70298291 23.5054765 -2.75 21.45703125 C-2.76571045 20.22637939 -2.7814209 18.99572754 -2.79760742 17.7277832 C-3.63264767 13.52166602 -5.09505036 11.99599574 -8.45703125 9.40625 C-12.33770037 9.33816809 -14.51345567 9.69888581 -17.63378906 12.03808594 C-20.09093945 15.22961764 -19.99858967 17.35819661 -20.06640625 21.359375 C-20.0829425 22.01959656 -20.09947876 22.67981812 -20.11651611 23.36004639 C-20.16491576 25.45887626 -20.18634644 27.55698222 -20.20703125 29.65625 C-20.23519808 31.0833696 -20.26512653 32.51045559 -20.296875 33.9375 C-20.37066888 37.42692609 -20.42029404 40.91621472 -20.45703125 44.40625 C-24.08703125 44.40625 -27.71703125 44.40625 -31.45703125 44.40625 C-31.45703125 29.88625 -31.45703125 15.36625 -31.45703125 0.40625 C-28.15703125 0.40625 -24.85703125 0.40625 -21.45703125 0.40625 C-21.45703125 2.05625 -21.45703125 3.70625 -21.45703125 5.40625 C-21.00714844 4.973125 -20.55726563 4.54 -20.09375 4.09375 C-13.7748199 -1.3767466 -8.03240594 -1.94105835 0 0 Z " fill="#FAFAFA" transform="translate(315.45703125,669.59375)"/>
<path d="M0 0 C0.53866699 0.74620605 1.07733398 1.49241211 1.63232422 2.26123047 C4.18380689 5.21261556 6.53671527 6.83364847 9.8828125 8.8203125 C10.44992447 9.16076599 11.01703644 9.50121948 11.60133362 9.85198975 C13.43748654 10.95175215 15.28112996 12.03823603 17.125 13.125 C18.40140645 13.88716474 19.67720051 14.65035596 20.95239258 15.41455078 C23.47858 16.92716199 26.00727093 18.43541919 28.53857422 19.93945312 C32.93910347 22.55586242 37.318528 25.20625613 41.6875 27.875 C42.39350342 28.30578857 43.09950684 28.73657715 43.8269043 29.18041992 C49.45286725 32.62969053 54.99885762 36.19583304 60.52685547 39.79956055 C65.10826542 42.78496576 69.71494535 45.72592321 74.34521484 48.63500977 C76.76666973 50.15866221 79.1802676 51.69422996 81.59375 53.23046875 C84.25147793 54.91723551 86.92432833 56.54989639 89.65625 58.11328125 C96.60980344 62.26992272 99.31396902 65.82241431 102.53125 73.2109375 C104.95273411 77.80918127 108.17108789 80.19861899 113 82 C120.39585858 83.3274618 125.66959633 81.82213052 132 78 C131.39830623 81.40959803 131.11425606 81.90651777 128.25 84.25 C125.04323897 85.97671748 123.54563138 86.4171331 120 86 C120 86.66 120 87.32 120 88 C113.85109567 88.64051087 109.81915465 88.02711634 104.7265625 84.42578125 C100.7029781 81.10313802 98.59706714 78.22433747 98 73 C97.34 73 96.68 73 96 73 C96 72.34 96 71.68 96 71 C95.46632813 70.90976562 94.93265625 70.81953125 94.3828125 70.7265625 C91.19424361 69.75431035 88.70187929 68.13924515 85.875 66.375 C85.29733887 66.0145459 84.71967773 65.6540918 84.12451172 65.28271484 C79.88200057 62.6128081 75.76535373 59.79106615 71.6796875 56.88671875 C55.9774705 45.83107617 39.59623765 35.72968469 23.3125 25.5625 C22.67014404 25.15990967 22.02778809 24.75731934 21.3659668 24.3425293 C18.52012111 22.56085675 15.66727942 20.80109535 12.78515625 19.078125 C2.13653688 12.61748613 2.13653688 12.61748613 -1 7 C-1.4375 3.625 -1.4375 3.625 -1 1 C-0.67 0.67 -0.34 0.34 0 0 Z " fill="#7DBCDB" transform="translate(394,326)"/>
<path d="M0 0 C3.17909684 1.64842058 4.66706512 2.65436803 6.375 5.75 C5.055 7.4 3.735 9.05 2.375 10.75 C-2.375 9.875 -2.375 9.875 -4.625 8.75 C-6.66555005 8.67934383 -8.70834257 8.66578024 -10.75 8.6875 C-11.84570312 8.69652344 -12.94140625 8.70554687 -14.0703125 8.71484375 C-14.91335938 8.72644531 -15.75640625 8.73804688 -16.625 8.75 C-16.78011063 11.18078366 -16.78011063 11.18078366 -15.625 13.75 C-12.81900256 15.00246238 -10.30382013 15.9173437 -7.375 16.75 C-1.4773328 18.46062185 2.25973166 19.90100164 6.375 24.75 C6.705 25.08 7.035 25.41 7.375 25.75 C8.03393207 29.63686515 8.1551006 33.24161359 6.31640625 36.796875 C2.78911353 41.27051455 -1.03294509 43.70265861 -6.625 44.75 C-14.09676892 45.55558155 -20.3950563 45.23856185 -26.625 40.75 C-27.64803213 39.77357526 -28.6549205 38.7790509 -29.625 37.75 C-28.55098892 34.83482708 -27.84689824 32.97189824 -25.625 30.75 C-22.94681895 31.03694797 -21.22984536 31.97451968 -18.875 33.3125 C-14.73177159 35.1450818 -12.12353109 35.04990207 -7.625 34.75 C-6.635 34.255 -6.635 34.255 -5.625 33.75 C-5.625 32.1 -5.625 30.45 -5.625 28.75 C-8.42551807 27.21668468 -10.86185147 26.41454133 -14 25.875 C-19.06931506 24.80777578 -22.75951436 22.82919283 -26.26171875 18.92578125 C-28.65435523 15.10716086 -28.25345592 11.09976232 -27.625 6.75 C-22.20574821 -3.04633978 -9.67333987 -3.26027381 0 0 Z " fill="#F5F5F5" transform="translate(361.625,670.25)"/>
<path d="M0 0 C1.19367187 -0.01675781 2.38734375 -0.03351562 3.6171875 -0.05078125 C9.04390926 0.51122891 12.94127246 2.93333545 17.125 6.3125 C15.63402342 10.1077131 13.36799151 11.92292731 10.125 14.3125 C9.650625 13.838125 9.17625 13.36375 8.6875 12.875 C4.99490561 10.62341805 1.43447049 10.03595644 -2.875 10.3125 C-5.79643417 12.07753314 -7.35423817 13.27097635 -8.875 16.3125 C-9.02401491 18.41303716 -9.09638453 20.51937825 -9.125 22.625 C-9.15078125 23.75550781 -9.1765625 24.88601563 -9.203125 26.05078125 C-8.8435426 29.62520151 -8.01522123 31.46060326 -5.875 34.3125 C-2.44056776 36.02971612 1.36162696 35.71105166 5.125 35.3125 C7.87072728 33.83262037 7.87072728 33.83262037 10.125 32.3125 C12.25 32.375 12.25 32.375 14.125 33.3125 C15.875 35.375 15.875 35.375 17.125 37.3125 C15.84668567 41.28947791 13.44375268 42.56358607 9.9765625 44.48046875 C4.02935996 47.15294584 -2.80207966 47.19358088 -9 45.3125 C-14.5218986 42.99330259 -18.37550269 38.26635925 -21.04296875 33.01171875 C-22.94178389 26.85171284 -23.12564298 18.86046141 -20.96484375 12.73046875 C-16.16108117 4.6521156 -9.40637311 0.03034314 0 0 Z " fill="#F5F5F5" transform="translate(809.875,668.6875)"/>
<path d="M0 0 C2.57161458 0.03255208 5.14322917 0.06510417 7.71484375 0.09765625 C7.71484375 4.38765625 7.71484375 8.67765625 7.71484375 13.09765625 C11.34484375 13.09765625 14.97484375 13.09765625 18.71484375 13.09765625 C18.71484375 16.06765625 18.71484375 19.03765625 18.71484375 22.09765625 C15.41484375 22.09765625 12.11484375 22.09765625 8.71484375 22.09765625 C8.85298598 26.07712955 9.00164049 30.0561404 9.15234375 34.03515625 C9.19166016 35.17146484 9.23097656 36.30777344 9.27148438 37.47851562 C9.31337891 38.55810547 9.35527344 39.63769531 9.3984375 40.75 C9.43509521 41.75023193 9.47175293 42.75046387 9.50952148 43.78100586 C9.46156216 46.05834813 9.46156216 46.05834813 10.71484375 47.09765625 C12.06231459 47.32840707 13.4186194 47.50918688 14.77734375 47.66015625 C16.07671875 47.80453125 17.37609375 47.94890625 18.71484375 48.09765625 C18.71484375 50.73765625 18.71484375 53.37765625 18.71484375 56.09765625 C14.97649178 58.5898909 11.0470128 58.73616624 6.71484375 58.09765625 C2.45650054 56.68665761 0.3408788 55.15264124 -1.97265625 51.25390625 C-4.14272572 45.79131758 -3.60072908 39.93656905 -3.47265625 34.16015625 C-3.45912109 32.99935547 -3.44558594 31.83855469 -3.43164062 30.64257812 C-3.39647035 27.79378573 -3.34724912 24.94596781 -3.28515625 22.09765625 C-5.59515625 22.09765625 -7.90515625 22.09765625 -10.28515625 22.09765625 C-10.28515625 19.12765625 -10.28515625 16.15765625 -10.28515625 13.09765625 C-7.97515625 13.09765625 -5.66515625 13.09765625 -3.28515625 13.09765625 C-3.29675781 12.24300781 -3.30835938 11.38835938 -3.3203125 10.5078125 C-3.32933594 9.40308594 -3.33835937 8.29835938 -3.34765625 7.16015625 C-3.35925781 6.05800781 -3.37085938 4.95585938 -3.3828125 3.8203125 C-3.25076835 0.13892172 -3.25076835 0.13892172 0 0 Z " fill="#F4F4F4" transform="translate(615.28515625,656.90234375)"/>
<path d="M0 0 C0.9075 0.00257813 1.815 0.00515625 2.75 0.0078125 C4.11125 0.00394531 4.11125 0.00394531 5.5 0 C7.75 0.1328125 7.75 0.1328125 8.75 1.1328125 C8.8440067 3.09650403 8.86743381 5.06360449 8.86352539 7.02954102 C8.86344986 8.29077286 8.86337433 9.5520047 8.86329651 10.85145569 C8.8581891 12.23821044 8.85297309 13.62496479 8.84765625 15.01171875 C8.84579201 16.42276459 8.84436814 17.83381107 8.84336853 19.24485779 C8.83954379 22.96521785 8.8297139 26.6855391 8.81866455 30.40588379 C8.80844948 34.19962031 8.80387071 37.99336308 8.79882812 41.78710938 C8.78809158 49.23569686 8.77049515 56.6842443 8.75 64.1328125 C4.79 64.1328125 0.83 64.1328125 -3.25 64.1328125 C-3.27255425 55.9359028 -3.29091696 47.73901705 -3.30181217 39.54208469 C-3.3070402 35.73629673 -3.31413638 31.93053102 -3.32543945 28.12475586 C-3.3362712 24.45488706 -3.34227744 20.78503972 -3.34487724 17.11515617 C-3.34673097 15.71206258 -3.3503506 14.30897021 -3.35573006 12.9058857 C-3.36294419 10.9471157 -3.36340809 8.9883243 -3.36352539 7.02954102 C-3.365746 5.91257339 -3.36796661 4.79560577 -3.37025452 3.64479065 C-3.21627318 0.42829812 -3.19783672 0.1887612 0 0 Z " fill="#EEEEEE" transform="translate(720.25,649.8671875)"/>
<path d="M0 0 C1.98 0 3.96 0 6 0 C7 1 7 1 7.11352539 4.60180664 C7.11336625 6.20459856 7.10767063 7.8073956 7.09765625 9.41015625 C7.0962413 10.25219101 7.09482635 11.09422577 7.09336853 11.96177673 C7.08775263 14.66205335 7.07519748 17.36224828 7.0625 20.0625 C7.05748705 21.88867068 7.05292379 23.71484266 7.04882812 25.54101562 C7.03777804 30.02737542 7.02050279 34.51367384 7 39 C3.66666667 39 0.33333333 39 -3 39 C-3.76054688 39.05800781 -4.52109375 39.11601563 -5.3046875 39.17578125 C-12.25212465 39.54532578 -12.25212465 39.54532578 -16 36.8125 C-19.84323354 31.40795284 -20.96170145 26.58128221 -20 20 C-17.9949912 16.1973971 -16.57313738 14.38209159 -13 12 C-6.82752672 11.5022199 -5.63609221 11.61834467 0 15 C0 10.05 0 5.1 0 0 Z " fill="#349BD3" transform="translate(599,750)"/>
<path d="M0 0 C2.31 0 4.62 0 7 0 C7 0.66 7 1.32 7 2 C7.515625 1.67 8.03125 1.34 8.5625 1 C11.89310774 -0.36640318 14.42646082 -0.31346835 18 0 C22.10219771 1.81259899 24.76415359 4.10797107 27 8 C28.19222115 14.40266913 27.04683543 19.04056885 23.484375 24.40625 C20.96368745 27.11267242 18.70403334 27.92510284 15.0625 28.3125 C12 28 12 28 7 25 C7 29.29 7 33.58 7 38 C4.69 38 2.38 38 0 38 C0 25.46 0 12.92 0 0 Z " fill="#359BD3" transform="translate(673,762)"/>
<path d="M0 0 C0.32226589 3.46435837 0.3479167 5.43463536 -1.5 8.4375 C-3.47435314 10.46121196 -5.44068909 12.26506306 -7.58511353 14.09413147 C-12.31287368 18.21189916 -16.72491458 22.60640375 -21.13818359 27.05639648 C-22.45184906 28.37466179 -22.45184906 28.37466179 -23.79205322 29.71955872 C-25.67991922 31.61454117 -27.56686647 33.5103884 -29.45234299 35.40774345 C-32.43274021 38.40657043 -35.41760149 41.40092772 -38.40322876 44.39454651 C-46.88638433 52.901758 -55.36346536 61.41500792 -63.83642578 69.93237305 C-68.52869189 74.64915147 -73.22451769 79.36235667 -77.92421973 84.07172638 C-80.8949584 87.04901409 -83.86113159 90.03075478 -86.82402492 93.01584899 C-89.09141696 95.29767306 -91.36529188 97.57302125 -93.63818359 99.84936523 C-94.45999115 100.67993439 -95.28179871 101.51050354 -96.12850952 102.36624146 C-96.87697144 103.1133992 -97.62543335 103.86055695 -98.39657593 104.63035583 C-99.37376115 105.61225466 -99.37376115 105.61225466 -100.37068748 106.61398983 C-102 108 -102 108 -104 108 C-104.495 108.99 -104.495 108.99 -105 110 C-105.70405846 102.86758171 -105.70405846 102.86758171 -102.578125 99.015625 C-101.48706912 98.07214025 -100.37632289 97.15108999 -99.25 96.25 C-98.05645303 95.22514408 -96.86510063 94.19772767 -95.67578125 93.16796875 C-94.76046631 92.38945557 -94.76046631 92.38945557 -93.82666016 91.59521484 C-90.90421089 89.04305185 -88.1696809 86.31531411 -85.4375 83.5625 C-84.94991211 83.0787793 -84.46232422 82.59505859 -83.95996094 82.09667969 C-81.88162071 80.01254618 -79.94727553 77.93093207 -78.16015625 75.58984375 C-76.36263218 73.43476517 -74.71990871 71.85145062 -72.59350586 70.06274414 C-67.47491475 65.62546954 -62.7217793 60.83486591 -57.95368958 56.02885437 C-56.30666117 54.36886941 -54.65636048 52.71219765 -53.00524902 51.05627441 C-49.50065361 47.54034349 -46.00002445 44.02048047 -42.5 40.5 C-38.43880992 36.41507415 -34.37593706 32.33185107 -30.30879211 28.25285339 C-28.69607417 26.63373229 -27.08643782 25.01159216 -25.47692871 23.38928223 C-20.65326364 18.54183192 -15.79818227 13.79108725 -10.58396912 9.36131287 C-8.46174459 7.53740638 -6.50874142 5.57139708 -4.5625 3.5625 C-1.10815939 0 -1.10815939 0 0 0 Z " fill="#92C7E0" transform="translate(637,284)"/>
<path d="M0 0 C1.65 0 3.3 0 5 0 C5.33 4.62 5.66 9.24 6 14 C6.99 13.34 7.98 12.68 9 12 C13.12902729 11.53256295 15.48551526 11.75265157 19.25 13.5625 C23.06554926 16.94446412 24.78126397 20.0574796 25.1640625 25.20703125 C24.93566256 30.36359908 23.47797114 33.95036324 19.8828125 37.67578125 C16.51044881 40.0476304 13.04955505 40.56862822 9 40 C6.4375 38.0625 6.4375 38.0625 5 36 C4.67 36.99 4.34 37.98 4 39 C2.68 39 1.36 39 0 39 C0 26.13 0 13.26 0 0 Z " fill="#3492C5" transform="translate(509,750)"/>
<path d="M0 0 C3.06172394 1.29272788 4.63118786 2.58031722 6.8125 5.0625 C8.7941642 9.96451143 9.03256491 15.10881824 7.23828125 20.1328125 C5.36840788 23.66561673 3.6890801 25.57802731 0 27 C-2.2890625 27.265625 -2.2890625 27.265625 -4.625 27.25 C-5.40101563 27.25515625 -6.17703125 27.2603125 -6.9765625 27.265625 C-9 27 -9 27 -11 25 C-11.33 29.29 -11.66 33.58 -12 38 C-13.65 38 -15.3 38 -17 38 C-17 25.79 -17 13.58 -17 1 C-15.35 1 -13.7 1 -12 1 C-12 1.66 -12 2.32 -12 3 C-11.505 2.505 -11.01 2.01 -10.5 1.5 C-7.04298894 -0.57420663 -3.88715837 -0.56526407 0 0 Z " fill="#3398CF" transform="translate(480,762)"/>
<path d="M0 0 C0 3.63 0 7.26 0 11 C-2.44140625 11.13020833 -4.8828125 11.26041667 -7.32421875 11.390625 C-10.84284972 12.19194826 -12.45290505 13.44662626 -15 16 C-15.77729264 19.17540136 -15.77729264 19.17540136 -15.70703125 22.734375 C-15.73603516 24.02988281 -15.76503906 25.32539062 -15.79492188 26.66015625 C-15.80131071 28.02343512 -15.8071633 29.3867166 -15.8125 30.75 C-15.83564971 32.12894569 -15.86101607 33.50785607 -15.88867188 34.88671875 C-15.94761214 38.2581019 -15.98384418 41.62818438 -16 45 C-19.63 45 -23.26 45 -27 45 C-27 30.48 -27 15.96 -27 1 C-23.7 1 -20.4 1 -17 1 C-16.34 2.32 -15.68 3.64 -15 5 C-14.21625 4.360625 -13.4325 3.72125 -12.625 3.0625 C-8.1481296 -0.45504103 -5.56678145 -0.0897868 0 0 Z " fill="#F7F7F7" transform="translate(230,669)"/>
<path d="M0 0 C0 3.3 0 6.6 0 10 C-1.546875 10.226875 -3.09375 10.45375 -4.6875 10.6875 C-9.62768684 11.41206074 -11.81319044 13.17163881 -15 17 C-15.77123439 20.17047234 -15.77123439 20.17047234 -15.70703125 23.61328125 C-15.73603516 24.86044922 -15.76503906 26.10761719 -15.79492188 27.39257812 C-15.80072266 28.68615234 -15.80652344 29.97972656 -15.8125 31.3125 C-15.83763672 32.62541016 -15.86277344 33.93832031 -15.88867188 35.29101562 C-15.94751968 38.52764489 -15.98381937 41.76292218 -16 45 C-19.63 45 -23.26 45 -27 45 C-27 30.48 -27 15.96 -27 1 C-23.7 1 -20.4 1 -17 1 C-16.34 2.32 -15.68 3.64 -15 5 C-14.21625 4.360625 -13.4325 3.72125 -12.625 3.0625 C-8.1481296 -0.45504103 -5.56678145 -0.0897868 0 0 Z " fill="#F9F9F9" transform="translate(505,669)"/>
<path d="M0 0 C3.01675196 1.80636472 4.5843841 3.79341551 6 7 C7.03041252 13.50877241 6.82599858 18.51384243 3 24 C1.04277765 26.18305569 -0.27284921 26.91689705 -3.1875 27.25 C-5.51849717 27.30976916 -7.6922955 27.34303716 -10 27 C-10.66 26.34 -11.32 25.68 -12 25 C-12.33 29.29 -12.66 33.58 -13 38 C-14.65 38 -16.3 38 -18 38 C-18 25.79 -18 13.58 -18 1 C-16.35 1 -14.7 1 -13 1 C-13 1.66 -13 2.32 -13 3 C-12.525625 2.505 -12.05125 2.01 -11.5625 1.5 C-7.71958392 -0.74951185 -4.33068933 -1.00226662 0 0 Z " fill="#2F8EC3" transform="translate(449,762)"/>
<path d="M0 0 C4.24318215 0.73018431 8.24612676 1.9923003 12.3125 3.375 C12.97386963 3.59760498 13.63523926 3.82020996 14.31665039 4.04956055 C18.91612903 5.60681986 23.47289314 7.24459122 28 9 C28 9.99 28 10.98 28 12 C28.61488281 12.06058594 29.22976563 12.12117187 29.86328125 12.18359375 C30.67152344 12.26738281 31.47976563 12.35117187 32.3125 12.4375 C33.11300781 12.51871094 33.91351563 12.59992187 34.73828125 12.68359375 C37 13 37 13 40 14 C52.66552203 15.48176024 65.54055903 15.21943337 78.26904297 15.24023438 C81.86058537 15.24996096 85.45155929 15.28108682 89.04296875 15.3125 C104.98296725 15.3863996 119.75863087 14.38017471 135 9.4375 C150.60794374 4.64289122 150.60794374 4.64289122 159 5 C156.77958079 7.22041921 155.47592192 7.65332399 152.51953125 8.5859375 C151.61025879 8.87509033 150.70098633 9.16424316 149.76416016 9.4621582 C148.7901123 9.763396 147.81606445 10.06463379 146.8125 10.375 C145.81524902 10.68590576 144.81799805 10.99681152 143.79052734 11.31713867 C140.86356717 12.22240598 137.93298365 13.11446356 135 14 C133.8874585 14.33813721 133.8874585 14.33813721 132.75244141 14.68310547 C116.23542309 19.63292357 99.98015818 20.38396118 82.875 20.3125 C81.92467896 20.31001251 80.97435791 20.30752502 79.99523926 20.30496216 C57.29343685 20.21300271 37.52592014 17.39566162 16 10 C15.06236816 9.6788623 14.12473633 9.35772461 13.15869141 9.02685547 C10.47447396 8.09710819 7.79789928 7.14926439 5.125 6.1875 C4.31587158 5.8977832 3.50674316 5.60806641 2.6730957 5.30957031 C-2.87821489 3.24357023 -2.87821489 3.24357023 -4 1 C-2.68 1.33 -1.36 1.66 0 2 C0 1.34 0 0.68 0 0 Z " fill="#4BABDC" transform="translate(430,576)"/>
<path d="M0 0 C3.8026029 2.0050088 5.61790841 3.42686262 8 7 C8.66175067 11.04712777 8.94221821 15.22065714 6.984375 18.91796875 C4.44190101 22.01948069 1.74693231 24.6602352 -2.26953125 25.44140625 C-9.00503336 25.76214445 -9.00503336 25.76214445 -11.953125 23.50390625 C-16.9533444 17.66627147 -16.9533444 17.66627147 -17.0546875 14.046875 C-16.58666155 8.06428239 -15.3067505 5.2017078 -11 1 C-7.53081128 -0.73459436 -3.79303468 -0.47173877 0 0 Z " fill="#F9D537" transform="translate(517,376)"/>
<path d="M0 0 C3.66195861 1.59215592 6.20204902 3.40409804 8 7 C8 9.97 8 12.94 8 16 C2.06 16 -3.88 16 -10 16 C-6.7463308 21.22930843 -6.7463308 21.22930843 -3.0625 21.4375 C-0.07270078 21.01038583 2.275786 20.28198306 5 19 C5.66 20.65 6.32 22.3 7 24 C1.48981546 27.81863892 -3.48123477 27.81258846 -10 27 C-13.23427845 25.25348964 -14.4171505 23.9436611 -16.3125 20.875 C-17.52976041 15.78463828 -18.48636791 10.53047298 -15.7265625 5.83203125 C-10.94862351 0.18007902 -7.30372537 -0.70885376 0 0 Z " fill="#379ED6" transform="translate(629,762)"/>
<path d="M0 0 C3.8026029 2.0050088 5.61790841 3.42686262 8 7 C8 9.97 8 12.94 8 16 C2.06 16 -3.88 16 -10 16 C-8.5 20 -8.5 20 -6 21 C-1.77853434 21.28143104 1.17291493 20.80098121 5 19 C5.66 20.65 6.32 22.3 7 24 C1.48981546 27.81863892 -3.48123477 27.81258846 -10 27 C-13.23427845 25.25348964 -14.4171505 23.9436611 -16.3125 20.875 C-17.52976041 15.78463828 -18.48636791 10.53047298 -15.7265625 5.83203125 C-11.01195183 0.2549918 -7.2543901 -0.90222667 0 0 Z " fill="#329BD4" transform="translate(659,762)"/>
<path d="M0 0 C2.71054792 2.15913744 4.46505793 4.72436891 5.8125 7.9375 C6.35077429 13.85851717 6.26507511 17.86916768 3 23 C0.54328016 25.83467674 -1.75341433 26.30902273 -5.375 26.625 C-8.99207267 26.46955555 -10.95702348 25.78739994 -13.5625 23.25 C-16.64905448 19.02855641 -16.72896964 14.91539858 -16.4609375 9.81640625 C-15.68518964 5.07645532 -13.98553988 2.63097919 -10.25 -0.4375 C-6.67439576 -1.33140106 -3.45310288 -1.18529127 0 0 Z " fill="#232124" transform="translate(765,679)"/>
<path d="M0 0 C3.9718707 2.13869961 6.39348732 3.7727247 8 8 C8.30078125 10.83984375 8.30078125 10.83984375 8.3125 13.9375 C8.32925781 14.95714844 8.34601563 15.97679687 8.36328125 17.02734375 C7.95085176 20.40217003 6.97262263 22.25970649 5 25 C1.98997559 27.34113009 -1.27741542 27.41216607 -5.03125 27.328125 C-8.14316604 26.80947233 -9.85067869 25.21445226 -12 23 C-14.46888557 18.06222885 -13.69750064 11.36846803 -13 6 C-10.12742556 1.06016823 -5.66227287 -1.20473891 0 0 Z " fill="#252325" transform="translate(402,678)"/>
<path d="M0 0 C3.68623011 1.61272567 4.75355 2.630325 7 6 C7.22705078 8.26831055 7.22705078 8.26831055 7.1953125 10.88671875 C7.18886719 11.82451172 7.18242187 12.76230469 7.17578125 13.72851562 C7.15902344 14.70498047 7.14226562 15.68144531 7.125 16.6875 C7.11597656 17.67556641 7.10695313 18.66363281 7.09765625 19.68164062 C7.0740843 22.12133765 7.04118022 24.56054697 7 27 C5.35 27 3.7 27 2 27 C1.67 26.34 1.34 25.68 1 25 C-0.051875 25.7425 -0.051875 25.7425 -1.125 26.5 C-4.49395521 28.25771576 -6.25082097 28.54675527 -10 28 C-13.73400421 25.92555322 -14.78947087 24.64328346 -16.125 20.5625 C-16 17 -16 17 -13.6875 14.125 C-9.8865356 11.11958629 -8.15590326 10.8819081 -3.375 10.9375 C-1.87066406 10.95103516 -1.87066406 10.95103516 -0.3359375 10.96484375 C0.43492187 10.97644531 1.20578125 10.98804688 2 11 C1.34 9.35 0.68 7.7 0 6 C-1.41655793 5.9727585 -2.83327045 5.95349533 -4.25 5.9375 C-5.03890625 5.92589844 -5.8278125 5.91429687 -6.640625 5.90234375 C-8.90691002 5.99614694 -10.8288895 6.36758937 -13 7 C-13.33 5.68 -13.66 4.36 -14 3 C-9.58235274 -0.85651423 -5.63717358 -0.6852318 0 0 Z " fill="#3593C8" transform="translate(415,762)"/>
<path d="M0 0 C2.93423195 1.79646854 4.47205355 2.9441071 6 6 C6.08400529 7.59447464 6.10727467 9.19240545 6.09765625 10.7890625 C6.09443359 11.73007812 6.09121094 12.67109375 6.08789062 13.640625 C6.07951172 14.62546875 6.07113281 15.6103125 6.0625 16.625 C6.05798828 17.61757813 6.05347656 18.61015625 6.04882812 19.6328125 C6.03702145 22.0886016 6.020554 24.54427104 6 27 C4.35 27 2.7 27 1 27 C1 26.34 1 25.68 1 25 C0.01 25.66 -0.98 26.32 -2 27 C-5.39209331 27.53797807 -8.60747802 27.53858369 -12 27 C-15.12348268 24.4714664 -15.8131587 22.89683824 -16.625 19 C-15.92425984 15.63644722 -14.82112034 13.97999558 -12.06640625 11.90234375 C-7.9239441 10.09344251 -3.41872517 10.64618749 1 11 C0.34 9.02 -0.32 7.04 -1 5 C-6.32170494 4.70437633 -6.32170494 4.70437633 -11 7 C-11.99 7 -12.98 7 -14 7 C-14.33 5.68 -14.66 4.36 -15 3 C-10.40212255 -0.67830196 -5.64210698 -0.86160254 0 0 Z " fill="#3391C6" transform="translate(341,762)"/>
<path d="M0 0 C3.1723243 2.17971543 6.26045849 4.52091698 8 8 C8.42070387 11.05911811 8.48077115 13.94631074 8 17 C5.56246638 20.09632649 3.26549269 21.82300487 0 24 C-4.42784767 23.91800282 -6.43199479 23.49227118 -9.8125 20.5625 C-10.534375 19.716875 -11.25625 18.87125 -12 18 C-12.66 17.34 -13.32 16.68 -14 16 C-14.66817189 12.28793395 -14.65728085 9.96790182 -12.50390625 6.796875 C-5.8382138 -0.90816659 -5.8382138 -0.90816659 0 0 Z " fill="#EAF5FB" transform="translate(515,196)"/>
<path d="M0 0 C2.875 2.5 2.875 2.5 5 5 C5.33 5.33 5.66 5.66 6 6 C6.50899719 11.005139 6.59709195 13.05167749 3.875 17.375 C0.83703341 20.14879558 -0.95823426 21.32637238 -5 22 C-9.05486034 21.20880774 -11.52761143 19.03803616 -14.046875 15.77734375 C-15.89050939 12.33941897 -15.54990665 9.84934654 -15 6 C-11.07837397 -0.44267133 -7.28469092 -1.91702393 0 0 Z " fill="#C2E6F5" transform="translate(517,553)"/>
<path d="M0 0 C3.67737288 1.02352327 5.51481986 2.67855435 7.96484375 5.546875 C9.02130611 8.29819676 9.30916646 10.620132 8.96484375 13.546875 C6.82754163 17.90368316 4.52037878 20.74584952 -0.03515625 22.546875 C-4.65794897 22.62942487 -6.46860088 22.04110415 -9.97265625 18.984375 C-12.09176225 16.03175397 -12.84190866 13.2821318 -12.578125 9.58203125 C-10.90664677 3.31699414 -6.57063324 -0.65580217 0 0 Z " fill="#DCF0F9" transform="translate(694.03515625,375.453125)"/>
<path d="M0 0 C2.97361628 1.78152067 5.42653612 3.85307225 7 7 C7.67660495 12.86390959 7.67660495 12.86390959 5.953125 15.7578125 C3.02250123 19.32627792 1.32898658 20.84665539 -3.25 21.375 C-8.19272958 20.88072704 -9.53828301 19.46171699 -13 16 C-14.55024464 12.89951072 -14.28992015 10.42105782 -14 7 C-10.27874785 1.22564321 -6.8960142 -0.81817118 0 0 Z " fill="#DBF0F9" transform="translate(336,376)"/>
<path d="M0 0 C1.65 0 3.3 0 5 0 C7.31 5.61 9.62 11.22 12 17 C14.09946114 13.85080829 15.24684003 10.91746355 16.5625 7.375 C18.89455185 1.10544815 18.89455185 1.10544815 20 0 C21.66617115 -0.04063832 23.33388095 -0.042721 25 0 C23.44197533 3.93928509 21.87774378 7.8760784 20.3125 11.8125 C19.87744141 12.91271484 19.44238281 14.01292969 18.99414062 15.14648438 C11.14602482 34.85397518 11.14602482 34.85397518 9 37 C6.66702567 37.04092937 4.33294775 37.04241723 2 37 C2 35.68 2 34.36 2 33 C3.65 33 5.3 33 7 33 C9.5744685 26.63954842 8.7179457 22.51950522 6.15234375 16.328125 C5.42059683 14.63258168 4.68214454 12.9399187 3.9375 11.25 C3.19346139 9.54825016 2.45241976 7.84518582 1.71484375 6.140625 C1.38605225 5.39329102 1.05726074 4.64595703 0.71850586 3.87597656 C0 2 0 2 0 0 Z " fill="#3394CB" transform="translate(538,763)"/>
<path d="M0 0 C4.22607548 2.40680152 4.22607548 2.40680152 6 5 C6.73822806 8.79606609 6.56706793 12.46375412 6.375 16.3125 C6.34792969 17.33923828 6.32085937 18.36597656 6.29296875 19.42382812 C6.22243254 21.95137576 6.12393429 24.47460043 6 27 C4.35 27 2.7 27 1 27 C0.98018066 26.40461426 0.96036133 25.80922852 0.93994141 25.19580078 C0.84483874 22.50507847 0.73510158 19.81514852 0.625 17.125 C0.5940625 16.18785156 0.563125 15.25070312 0.53125 14.28515625 C0.49257813 13.38925781 0.45390625 12.49335937 0.4140625 11.5703125 C0.3826416 10.74289551 0.3512207 9.91547852 0.31884766 9.06298828 C0.17400863 6.78013915 0.17400863 6.78013915 -2 5 C-6.09447801 4.5088154 -6.09447801 4.5088154 -9.65942383 6.24145508 C-11.33138941 8.43471097 -11.41984255 9.71130803 -11.51171875 12.44921875 C-11.54716797 13.29677734 -11.58261719 14.14433594 -11.61914062 15.01757812 C-11.64169922 15.89865234 -11.66425781 16.77972656 -11.6875 17.6875 C-11.72166016 18.58017578 -11.75582031 19.47285156 -11.79101562 20.39257812 C-11.87345648 22.59492671 -11.94261551 24.79687938 -12 27 C-13.32 27 -14.64 27 -16 27 C-16 18.42 -16 9.84 -16 1 C-14.68 1 -13.36 1 -12 1 C-11.67 1.66 -11.34 2.32 -11 3 C-10.484375 2.505 -9.96875 2.01 -9.4375 1.5 C-6.02095736 -0.60248778 -3.95351948 -0.54531303 0 0 Z " fill="#3584AF" transform="translate(373,762)"/>
<path d="M0 0 C0.99 0 1.98 0 3 0 C3 4.15242757 0.78609269 6.2593258 -1.6875 9.375 C-2.34008789 10.22191406 -2.34008789 10.22191406 -3.00585938 11.0859375 C-5.78674859 14.6454757 -8.76622509 17.836879 -12 21 C-12.825 21.99 -13.65 22.98 -14.5 24 C-22.00998562 32.82278516 -30.16242227 40.89375282 -39.7578125 47.4140625 C-41.73726286 48.81416153 -43.35647156 50.22756736 -45 52 C-45.99 51.67 -46.98 51.34 -48 51 C-47.7390775 47.81094721 -46.98004969 46.98268463 -44.515625 44.84375 C-43.43267477 44.05476754 -42.34368834 43.27402864 -41.25 42.5 C-26.66581721 31.71264304 -13.80519559 18.78239965 -3.2590332 4.01196289 C-2.24058471 2.62223839 -1.12681383 1.30340405 0 0 Z " fill="#66BAE0" transform="translate(680,502)"/>
<path d="M0 0 C2.24125487 1.66018879 2.91353627 2.54041803 3.43359375 5.3046875 C3.43995121 9.48789516 3.33355049 12.33289902 1.4375 16.125 C-1 18 -1 18 -4.5625 18.5 C-8 18 -8 18 -9.6875 16.875 C-11.62505596 14.10706291 -11.4337366 11.84190148 -11.4375 8.5 C-11.45683594 7.3553125 -11.47617187 6.210625 -11.49609375 5.03125 C-11 2 -11 2 -9.1953125 0.0859375 C-5.85792071 -1.56494314 -3.5320189 -0.89905936 0 0 Z " fill="#212427" transform="translate(525,767)"/>
<path d="M0 0 C3.08672658 0.84884981 4.64944115 2.35539678 6.54296875 4.91015625 C8.23158352 8.04615511 8.11709612 10.23176173 7.5 13.6875 C6.09721717 16.39201774 4.86820749 17.57670637 2.5 19.6875 C-1.11370211 20.42499023 -2.6977677 20.15195028 -5.875 18.3125 C-8.39692253 14.23862514 -8.37232962 10.34243136 -7.5 5.6875 C-5.21505495 2.42329279 -3.83523747 1.0546903 0 0 Z " fill="#202227" transform="translate(475.5,765.3125)"/>
<path d="M0 0 C1.9375 1.5625 1.9375 1.5625 3 4 C2.89926112 9.43989926 1.34870588 12.76487197 -2 17 C-5 19 -5 19 -8.0625 18.75 C-11 18 -11 18 -13 16 C-13.49174102 11.73824449 -13.29433299 9.52776951 -11.1875 5.75 C-10.465625 4.8425 -9.74375 3.935 -9 3 C-8.319375 2.071875 -8.319375 2.071875 -7.625 1.125 C-5.02176236 -0.67724145 -3.06254352 -0.44662093 0 0 Z " fill="#E4F3FA" transform="translate(607,222)"/>
<path d="M0 0 C1.0209375 -0.01160156 1.0209375 -0.01160156 2.0625 -0.0234375 C4.64148389 0.50691806 5.48438583 1.22633967 7 3.375 C7.68144237 7.09453962 7.59743314 10.64523052 7 14.375 C4.57026288 17.3601056 3.17060484 18.1465893 -0.5625 18.875 C-3 18.375 -3 18.375 -5.3125 17.0625 C-7.95458488 12.85473519 -7.82011274 8.21440399 -7 3.375 C-4.99864258 0.52903302 -3.42278788 -0.03889532 0 0 Z " fill="#212428" transform="translate(443,766.625)"/>
<path d="M0 0 C3.52136015 2.5609892 6.48277701 5.9274398 7.55078125 10.20703125 C7.65490646 13.16089906 7.32917467 15.44560056 5.8125 18 C3.13929756 19.47487031 2.02070016 19.70248841 -1 19 C-4.5070242 15.76075351 -8.63951776 11.34313454 -9.375 6.5625 C-9 4 -9 4 -7.3125 1.6875 C-4.51285803 -0.35548198 -3.39677517 -0.4245969 0 0 Z " fill="#E1F3FB" transform="translate(423,222)"/>
<path d="M0 0 C0.66 0 1.32 0 2 0 C2 6.93 2 13.86 2 21 C0.35 21 -1.3 21 -3 21 C-3.33 20.34 -3.66 19.68 -4 19 C-4.70125 19.495 -5.4025 19.99 -6.125 20.5 C-9.41082318 22.21434253 -11.34453935 22.40616229 -15 22 C-15.66 21.34 -16.32 20.68 -17 20 C-16.34 20 -15.68 20 -15 20 C-15.02320313 19.37351562 -15.04640625 18.74703125 -15.0703125 18.1015625 C-15.08835937 17.28429687 -15.10640625 16.46703125 -15.125 15.625 C-15.15980469 14.40683594 -15.15980469 14.40683594 -15.1953125 13.1640625 C-15 11 -15 11 -13 9 C-10.6171875 8.8046875 -10.6171875 8.8046875 -7.875 8.875 C-6.50988281 8.90207031 -6.50988281 8.90207031 -5.1171875 8.9296875 C-4.41851562 8.95289063 -3.71984375 8.97609375 -3 9 C-3 9.99 -3 10.98 -3 12 C-2.34 11.67 -1.68 11.34 -1 11 C-0.5316735 8.41394668 -0.5316735 8.41394668 -0.375 5.4375 C-0.30023438 4.42558594 -0.22546875 3.41367187 -0.1484375 2.37109375 C-0.09945313 1.58863281 -0.05046875 0.80617188 0 0 Z " fill="#308FC2" transform="translate(420,768)"/>
<path d="M0 0 C3.83512427 0.11116302 6.16830489 0.81088119 9.1875 3.3125 C12.55055796 7.13942802 12.69654821 10.90477127 12.54296875 15.8046875 C11.97457835 19.81465052 10.61967397 22.06960137 8.1875 25.3125 C5.19962943 27.22423075 2.95075633 27.54083107 -0.5625 27.4375 C-1.36171875 27.41945313 -2.1609375 27.40140625 -2.984375 27.3828125 C-3.58765625 27.35960937 -4.1909375 27.33640625 -4.8125 27.3125 C-5.1425 25.3325 -5.4725 23.3525 -5.8125 21.3125 C-5.1525 21.6425 -4.4925 21.9725 -3.8125 22.3125 C-0.89711971 22.81292146 -0.89711971 22.81292146 2.1875 22.3125 C5.3215025 19.59086625 6.09970969 17.92703214 6.6875 13.8125 C6.09970969 9.69796786 5.3215025 8.03413375 2.1875 5.3125 C-0.89597826 5.14568891 -0.89597826 5.14568891 -3.8125 5.3125 C-4.4725 4.3225 -5.1325 3.3325 -5.8125 2.3125 C-3.8125 0.3125 -3.8125 0.3125 0 0 Z " fill="#2E90C6" transform="translate(475.8125,761.6875)"/>
<path d="M0 0 C1.875 1.0625 1.875 1.0625 3 3 C2.8910923 8.6632003 1.36739271 12.56922012 -2 17 C-5.5625 18.125 -5.5625 18.125 -9 18 C-10.9375 16.9375 -10.9375 16.9375 -12 15 C-12.61495685 11.04670599 -12.17911837 9.31500127 -10.1875 5.8125 C-9.465625 4.884375 -8.74375 3.95625 -8 3 C-7.525625 2.38125 -7.05125 1.7625 -6.5625 1.125 C-4.27095708 -0.5249109 -2.75052482 -0.41257872 0 0 Z " fill="#BBE5F6" transform="translate(427,531)"/>
<path d="M0 0 C4.56536086 1.33812301 6.38020784 2.58593697 9.625 6.0625 C10.5 9.375 10.5 9.375 10.625 12.0625 C8.3534525 14.15931307 6.88367913 15.0165126 3.8125 15.5625 C-0.50749053 14.88485443 -3.35592403 13.22180628 -6.375 10.0625 C-7.5625 7 -7.5625 7 -7.375 4.0625 C-5.22459504 0.56809194 -4.11369964 0.07617962 0 0 Z " fill="#E0F2FA" transform="translate(354.375,288.9375)"/>
<path d="M0 0 C2.76626606 1.29987648 4.9936186 2.67401802 7 5 C7.625 8.6875 7.625 8.6875 7 12 C3.46569344 14.35620437 2.16428713 14.48991613 -2 14 C-5.0603333 12.2344231 -7.50587755 10.49412245 -10 8 C-10.32954432 4.90228335 -10.45334601 2.82668977 -8.9375 0.0625 C-5.69124687 -1.71770333 -3.50202716 -0.93387391 0 0 Z " fill="#CEEBF6" transform="translate(670,468)"/>
<path d="M0 0 C4.28449996 1.23451694 5.51521146 2.40744314 7.80859375 6.0859375 C9.20840815 9.23396455 9.20539081 11.69620976 8.6875 15.0625 C7.5625 17.0625 7.5625 17.0625 5.6875 18.0625 C2.875 18.3125 2.875 18.3125 -0.3125 17.0625 C-3.84186882 13.30568296 -6.3125 9.85922257 -6.3125 4.625 C-4.81946948 0.7991093 -4.18557995 0.07897321 0 0 Z " fill="#BEE7F6" transform="translate(600.3125,530.9375)"/>
<path d="M0 0 C0.99 0.66 1.98 1.32 3 2 C3.4375 4.875 3.4375 4.875 3 8 C0.76894497 10.86849933 -1.55663702 12.81941841 -5 14 C-8.625 14.25 -8.625 14.25 -12 14 C-14 12 -14 12 -14.5625 8.6875 C-13.96813433 4.79110286 -13.83811463 4.33876709 -10.9375 2.0625 C-7.24446602 -0.2147461 -4.34373456 -0.5847335 0 0 Z " fill="#E5F2F9" transform="translate(674,290)"/>
<path d="M0 0 C2.0625 2.1875 2.0625 2.1875 3 5 C2.41733611 8.98153658 1.05365116 9.96002462 -2.1875 12.375 C-6.02261937 14.35674578 -8.8274905 14.22720868 -13 13 C-15 10 -15 10 -15.0625 7.625 C-12.53773384 1.38734242 -6.47478867 -1.24515167 0 0 Z " fill="#D0EEFA" transform="translate(362,468)"/>
<path d="M0 0 C1.32 0 2.64 0 4 0 C5.7041678 5.15946865 6.22225605 9.4425333 6.125 14.9375 C6.11597656 15.62134766 6.10695313 16.30519531 6.09765625 17.00976562 C6.07438958 18.67333287 6.03853167 20.33671631 6 22 C5.34 22 4.68 22 4 22 C4 26.95 4 31.9 4 37 C2.68 37 1.36 37 0 37 C0 24.79 0 12.58 0 0 Z " fill="#349CD4" transform="translate(431,763)"/>
<path d="M0 0 C0.35288435 3.7935068 0.28393415 5.55941253 -1.8125 8.8125 C-4.69624632 11.69624632 -6.45608924 11.96114923 -10.5 12.25 C-14 12 -14 12 -15.9375 10.8125 C-17.45039572 8.23167788 -17.64510271 6.93880123 -17 4 C-12.00425555 -0.99574445 -6.74195099 -0.43186875 0 0 Z " fill="#312F30" transform="translate(456,694)"/>
<path d="M0 0 C3.25644817 0.55428905 3.98021455 0.94354554 5.9375 3.5 C6.3359375 5.65625 6.3359375 5.65625 6.3125 8 C6.32023438 8.7734375 6.32796875 9.546875 6.3359375 10.34375 C5.8415804 13.01909429 5.1139752 13.90024058 2.9375 15.5 C-0.5625 15.9375 -0.5625 15.9375 -4.0625 15.5 C-6.66305327 13.3188908 -7.00197563 11.9063779 -7.5 8.5625 C-6.7942646 3.62235222 -5.0668087 0.82723407 0 0 Z " fill="#1F252C" transform="translate(593.0625,767.5)"/>
<path d="M0 0 C5.64028777 2.92086331 5.64028777 2.92086331 7 7 C6.34 7 5.68 7 5 7 C4.67 6.34 4.34 5.68 4 5 C3.54625 5.495 3.0925 5.99 2.625 6.5 C1 8 1 8 -1 8 C-1.33 9.65 -1.66 11.3 -2 13 C-4.375 12.6875 -4.375 12.6875 -7 12 C-7.66 11.01 -8.32 10.02 -9 9 C-12.58357241 8.74984127 -12.58357241 8.74984127 -16 9 C-13.50709355 0.84139708 -7.99494571 -1.41913799 0 0 Z " fill="#F8E97B" transform="translate(517,376)"/>
<path d="M0 0 C1.75570313 0.19335938 1.75570313 0.19335938 3.546875 0.390625 C4.43890625 0.50921875 5.3309375 0.6278125 6.25 0.75 C6.25 1.08 6.25 1.41 6.25 1.75 C5.53972656 1.88277344 4.82945312 2.01554688 4.09765625 2.15234375 C3.17855469 2.32894531 2.25945312 2.50554688 1.3125 2.6875 C0.39597656 2.86152344 -0.52054687 3.03554688 -1.46484375 3.21484375 C-3.70289844 3.52714988 -3.70289844 3.52714988 -4.75 4.75 C-4.91666667 7.25 -4.91666667 7.25 -4.75 9.75 C-3.65645094 11.04524348 -3.65645094 11.04524348 -1 11.125 C3.29604679 10.62930229 4.52416138 9.0058628 7.25 5.75 C7.91 4.76 8.57 3.77 9.25 2.75 C10.42571451 6.42410785 10.32366746 9.91929183 10.25 13.75 C8.93 14.08 7.61 14.41 6.25 14.75 C6.25 14.09 6.25 13.43 6.25 12.75 C5.26 13.41 4.27 14.07 3.25 14.75 C-0.14209331 15.28797807 -3.35747802 15.28858369 -6.75 14.75 C-9.9164051 12.18671968 -10.59859114 10.67737927 -11.25 6.6875 C-10.10832224 -0.01985682 -6.12390625 -0.73486875 0 0 Z " fill="#3397CF" transform="translate(335.75,774.25)"/>
<path d="M0 0 C2.16056668 1.60904029 2.91162897 2.47547518 3.36328125 5.15625 C3.34652344 5.9296875 3.32976563 6.703125 3.3125 7.5 C3.30863281 8.2734375 3.30476562 9.046875 3.30078125 9.84375 C3 12 3 12 1 15 C-5.09104478 15.66447761 -5.09104478 15.66447761 -7.69921875 13.7578125 C-9.34261411 11.53700796 -9.40241531 10.24153061 -9.375 7.5 C-9.38273438 6.7265625 -9.39046875 5.953125 -9.3984375 5.15625 C-8.41808061 -0.1492108 -4.82244972 -0.60280621 0 0 Z " fill="#21262B" transform="translate(689,768)"/>
<path d="M0 0 C1.65 0 3.3 0 5 0 C5 4.95 5 9.9 5 15 C5.99 15.33 6.98 15.66 8 16 C7.525625 16.639375 7.05125 17.27875 6.5625 17.9375 C4.76384751 21.46285889 4.60226487 24.11016017 4.50390625 28.01171875 C4.33761719 28.66785156 4.17132812 29.32398438 4 30 C2.02 30.99 2.02 30.99 0 32 C0 21.44 0 10.88 0 0 Z " fill="#4098C8" transform="translate(509,750)"/>
<path d="M0 0 C1.76923828 0.04060547 1.76923828 0.04060547 3.57421875 0.08203125 C4.47785156 0.11683594 5.38148438 0.15164063 6.3125 0.1875 C6.5625 5.828125 6.5625 5.828125 4.3125 9.0625 C0.20018289 11.97539129 -1.72724283 11.82753318 -6.6875 11.1875 C-8.6875 10 -8.6875 10 -9.6875 8.1875 C-10.10387778 5.41164816 -10.16543508 3.89849176 -8.58203125 1.54296875 C-5.75495874 -0.47969962 -3.42324147 -0.10168044 0 0 Z " fill="#262526" transform="translate(254.6875,694.8125)"/>
<path d="M0 0 C0.33 0 0.66 0 1 0 C1.03440186 0.65145996 1.06880371 1.30291992 1.10424805 1.97412109 C2.49362944 26.67279865 6.4370203 49.75410121 15 73 C13.515 73.495 13.515 73.495 12 74 C8.53855856 66.34064022 6.35675173 58.46406946 4.51757812 50.28515625 C4.16782746 48.74097409 3.80684281 47.19929997 3.43554688 45.66015625 C-0.2123877 30.40066043 -0.46277118 15.63988586 0 0 Z " fill="#373538" transform="translate(285,395)"/>
<path d="M0 0 C3.57941731 0.74518118 5.14189033 2.54249656 7.1953125 5.45703125 C7.1953125 6.77703125 7.1953125 8.09703125 7.1953125 9.45703125 C0.5953125 9.45703125 -6.0046875 9.45703125 -12.8046875 9.45703125 C-9.91991492 2.2450998 -7.81550735 -0.34821567 0 0 Z " fill="#2A282A" transform="translate(531.8046875,677.54296875)"/>
<path d="M0 0 C1.32 0 2.64 0 4 0 C4.33 0.66 4.66 1.32 5 2 C5.66 1.34 6.32 0.68 7 0 C8.32 0 9.64 0 11 0 C10 3 10 3 7.48828125 4.578125 C4.24183944 7.73792707 4.35574913 9.71926837 4.20507812 14.10546875 C4.19927734 14.97816406 4.19347656 15.85085938 4.1875 16.75 C4.16236328 17.63816406 4.13722656 18.52632812 4.11132812 19.44140625 C4.0525474 21.62804918 4.01620461 23.81269532 4 26 C2.68 26 1.36 26 0 26 C0 17.42 0 8.84 0 0 Z " fill="#3699D2" transform="translate(357,763)"/>
<path d="M0 0 C0.33 0 0.66 0 1 0 C0.93932639 12.95381539 -3.84473103 25.8553733 -8 38 C-8.66 37.34 -9.32 36.68 -10 36 C-10.99 36.495 -10.99 36.495 -12 37 C-11.5662812 35.49890232 -11.12777365 33.99918823 -10.6875 32.5 C-10.44386719 31.6646875 -10.20023438 30.829375 -9.94921875 29.96875 C-9.0028087 27.00878442 -7.91282977 24.12100678 -6.80932617 21.21679688 C-5.33896772 17.18938971 -4.08570429 13.093116 -2.8125 9 C-2.53986328 8.12988281 -2.26722656 7.25976562 -1.98632812 6.36328125 C-1.32222219 4.24280267 -0.66015226 2.12171208 0 0 Z " fill="#353538" transform="translate(733,437)"/>
<path d="M0 0 C0.90492188 0.02320313 1.80984375 0.04640625 2.7421875 0.0703125 C4.10730469 0.09738281 4.10730469 0.09738281 5.5 0.125 C6.19867188 0.14820313 6.89734375 0.17140625 7.6171875 0.1953125 C7.8203125 4.90625 7.8203125 4.90625 5.9921875 7.5078125 C2.97098314 9.6544577 1.24991123 9.66914603 -2.3828125 9.1953125 C-4.3828125 7.1953125 -4.3828125 7.1953125 -4.6328125 4.6953125 C-4.29201434 1.28733086 -3.44583467 0.28244546 0 0 Z " fill="#20242A" transform="translate(334.3828125,776.8046875)"/>
<path d="M0 0 C0.90492188 0.02320313 1.80984375 0.04640625 2.7421875 0.0703125 C4.10730469 0.09738281 4.10730469 0.09738281 5.5 0.125 C6.19867188 0.14820313 6.89734375 0.17140625 7.6171875 0.1953125 C7.8125 4.96875 7.8125 4.96875 6.0546875 7.0078125 C2.78577624 8.60035901 0.20482213 8.46607738 -3.3828125 8.1953125 C-4.3828125 7.1953125 -4.3828125 7.1953125 -4.5703125 4.7578125 C-4.31729437 1.29989801 -3.49111259 0.28615677 0 0 Z " fill="#21272D" transform="translate(409.3828125,776.8046875)"/>
<path d="M0 0 C8 2.66666667 16 5.33333333 24 8 C24 8.99 24 9.98 24 11 C16.38463772 10.54307826 8.77739358 8.52211005 2 5 C0.5859375 2.328125 0.5859375 2.328125 0 0 Z " fill="#67BBE4" transform="translate(433,573)"/>
<path d="M0 0 C1.65 0 3.3 0 5 0 C5.84212256 1.91282125 6.67338864 3.83042473 7.5 5.75 C8.19609375 7.35101562 8.19609375 7.35101562 8.90625 8.984375 C10 12 10 12 10 16 C9.01 16.33 8.02 16.66 7 17 C4.05966587 11.42234327 1.46987086 6.14673271 0 0 Z " fill="#369FD6" transform="translate(538,763)"/>
<path d="M0 0 C4.95 0 9.9 0 15 0 C15.33 1.32 15.66 2.64 16 4 C15.38125 4.144375 14.7625 4.28875 14.125 4.4375 C11.96741678 4.93152225 11.96741678 4.93152225 10 6 C6.25598728 6.4069579 4.63212653 6.49904726 1.625 4.125 C0 2 0 2 0 0 Z " fill="#20282D" transform="translate(649,778)"/>
<path d="M0 0 C0.99 0.33 1.98 0.66 3 1 C4.1671568 4.50147041 4.13357453 7.32670036 4 11 C3.67 11.66 3.34 12.32 3 13 C1.125 12.6875 1.125 12.6875 -1 12 C-3 9 -3 9 -2.75 5.4375 C-2 2 -2 2 0 0 Z " fill="#2E8DC9" transform="translate(402,775)"/>
<path d="M0 0 C-0.33 0.66 -0.66 1.32 -1 2 C-3.06958008 2.57836914 -3.06958008 2.57836914 -5.76953125 3.03515625 C-6.74083984 3.20466797 -7.71214844 3.37417969 -8.71289062 3.54882812 C-9.73576172 3.71833984 -10.75863281 3.88785156 -11.8125 4.0625 C-13.81918427 4.40653956 -15.82570163 4.75155445 -17.83203125 5.09765625 C-18.72639893 5.24726807 -19.6207666 5.39687988 -20.54223633 5.55102539 C-22.72802709 5.95031706 -24.85281521 6.43252363 -27 7 C-29.625 7.6875 -29.625 7.6875 -32 8 C-32.66 7.34 -33.32 6.68 -34 6 C-7.48091767 -0.40437393 -7.48091767 -0.40437393 0 0 Z " fill="#B3D0DA" transform="translate(486,170)"/>
<path d="M0 0 C0.66 2.31 1.32 4.62 2 7 C3.65 7.33 5.3 7.66 7 8 C7 7.34 7 6.68 7 6 C7.66 6.33 8.32 6.66 9 7 C8.34 8.65 7.68 10.3 7 12 C4.625 11.6875 4.625 11.6875 2 11 C1.34 10.01 0.68 9.02 0 8 C-3.58357241 7.74984127 -3.58357241 7.74984127 -7 8 C-4.18918919 0 -4.18918919 0 0 0 Z " fill="#FCDF52" transform="translate(508,377)"/>
<path d="M0 0 C0.66 0.33 1.32 0.66 2 1 C-5.59 8.59 -13.18 16.18 -21 24 C-21 19.87532888 -18.81803239 18.21429075 -16.125 15.375 C-15.38866333 14.58464355 -15.38866333 14.58464355 -14.63745117 13.77832031 C-10.01867417 8.88654496 -5.10370758 4.38409588 0 0 Z " fill="#A2D3E7" transform="translate(366,223)"/>
<path d="M0 0 C0.33 0 0.66 0 1 0 C1.49901509 11.32949069 -0.00871776 21.88200748 -2 33 C-2.66 32.34 -3.32 31.68 -4 31 C-3.86655132 28.54029816 -3.61818838 26.23901511 -3.25 23.8125 C-3.15219238 23.10867188 -3.05438477 22.40484375 -2.95361328 21.6796875 C-2.74783367 20.20202525 -2.53761094 18.72497581 -2.32324219 17.24853516 C-1.90514207 14.34014987 -1.52196179 11.42767289 -1.13964844 8.5144043 C-0.7666578 5.67533994 -0.38325184 2.8376945 0 0 Z " fill="#28272A" transform="translate(737,406)"/>
<path d="M0 0 C0.33 0 0.66 0 1 0 C1 6.93 1 13.86 1 21 C0.01 21 -0.98 21 -2 21 C-2.05791844 17.87507749 -2.09356746 14.75029234 -2.125 11.625 C-2.14175781 10.73554687 -2.15851563 9.84609375 -2.17578125 8.9296875 C-2.18222656 8.07890625 -2.18867188 7.228125 -2.1953125 6.3515625 C-2.20578613 5.56604004 -2.21625977 4.78051758 -2.22705078 3.97119141 C-2 2 -2 2 0 0 Z " fill="#30A3DD" transform="translate(377,768)"/>
<path d="M0 0 C1.8125 1.3125 1.8125 1.3125 3 3 C3 3.99 3 4.98 3 6 C-0.96 6 -4.92 6 -9 6 C-6.68387161 0.20967903 -5.95062163 -0.58054845 0 0 Z " fill="#1F2E39" transform="translate(628,767)"/>
<path d="M0 0 C1.8125 1.3125 1.8125 1.3125 3 3 C3 3.99 3 4.98 3 6 C-0.96 6 -4.92 6 -9 6 C-6.68387161 0.20967903 -5.95062163 -0.58054845 0 0 Z " fill="#21313D" transform="translate(658,767)"/>
<path d="M0 0 C1.84765625 0.33984375 1.84765625 0.33984375 4.0625 0.9375 C5.16271484 1.22947266 5.16271484 1.22947266 6.28515625 1.52734375 C7.13400391 1.76130859 7.13400391 1.76130859 8 2 C8 2.33 8 2.66 8 3 C6.783125 3.04125 5.56625 3.0825 4.3125 3.125 C0.62884842 3.5887221 -0.0049295 4.00450997 -2.9375 6.6875 C-4.99284589 9.98851007 -5.72563795 12.15893123 -6 16 C-6.66 15.34 -7.32 14.68 -8 14 C-8.99 14 -9.98 14 -11 14 C-9.75363936 7.61240173 -5.83738096 4.85927316 -1 1 C-0.67 0.67 -0.34 0.34 0 0 Z " fill="#6DC0E7" transform="translate(688,373)"/>
<path d="M0 0 C3.58060962 0.07161219 5.52291402 0.71041402 8.125 3.3125 C6.805 4.6325 5.485 5.9525 4.125 7.3125 C3.465 6.6525 2.805 5.9925 2.125 5.3125 C1.135 5.333125 0.145 5.35375 -0.875 5.375 C-1.865 5.354375 -2.855 5.33375 -3.875 5.3125 C-4.535 4.3225 -5.195 3.3325 -5.875 2.3125 C-3.875 0.3125 -3.875 0.3125 0 0 Z " fill="#2E88BB" transform="translate(475.875,761.6875)"/>
<path d="M0 0 C0.33 0 0.66 0 1 0 C1.90972518 9.68734381 2.19722582 18.41210552 0 28 C-0.33 28 -0.66 28 -1 28 C-1.02891949 23.70834738 -1.04677118 19.41671964 -1.0625 15.125 C-1.07087891 13.90167969 -1.07925781 12.67835938 -1.08789062 11.41796875 C-1.09111328 10.25136719 -1.09433594 9.08476562 -1.09765625 7.8828125 C-1.10289307 6.80402832 -1.10812988 5.72524414 -1.11352539 4.61376953 C-1 2 -1 2 0 0 Z " fill="#60A7C3" transform="translate(292,373)"/>
<path d="M0 0 C2.4375 1.5 2.4375 1.5 4 3 C2.4375 4.5625 2.4375 4.5625 0 6 C-3.64426778 5.87213096 -6.05717808 5.76034026 -8.9375 3.4375 C-9.288125 2.963125 -9.63875 2.48875 -10 2 C-6.28986601 -0.47342266 -4.38939738 -0.38503486 0 0 Z " fill="#338BBA" transform="translate(525,762)"/>
<path d="M0 0 C8.6039876 0.61457054 16.68798501 2.81979935 25 5 C26.33271376 5.33580189 27.6656639 5.67070369 29 6 C28.67 6.66 28.34 7.32 28 8 C18.26515296 6.76470691 9.27169581 4.0827212 0 1 C0 0.67 0 0.34 0 0 Z " fill="#3CA2D8" transform="translate(453,587)"/>
<path d="M0 0 C4.24366711 1.31351601 8.06262314 2.94928288 12 5 C13.093125 5.515625 14.18625 6.03125 15.3125 6.5625 C18 8 18 8 19 10 C21.22596002 10.84692901 23.48363587 11.46846299 25.7734375 12.12109375 C28.17312887 13.06834035 29.2555723 14.1476018 31 16 C23.88370122 13.84906953 17.55474125 10.92572244 11 7.4375 C10.04738281 6.94314453 9.09476562 6.44878906 8.11328125 5.93945312 C1.12900651 2.25801301 1.12900651 2.25801301 0 0 Z " fill="#298EBF" transform="translate(399,572)"/>
<path d="M0 0 C0.33 0 0.66 0 1 0 C0.45018084 6.04801071 -0.90429574 11.30601106 -3 17 C-3.66 16.34 -4.32 15.68 -5 15 C-5.99 15.495 -5.99 15.495 -7 16 C-5.43082402 9.98482543 -3.88104443 4.91598962 0 0 Z " fill="#3C3C3F" transform="translate(728,458)"/>
<path d="M0 0 C0.33 0 0.66 0 1 0 C1.33 1.98 1.66 3.96 2 6 C2.33 6 2.66 6 3 6 C3 10.62 3 15.24 3 20 C2.01 20 1.02 20 0 20 C0 13.4 0 6.8 0 0 Z " fill="#2C9DD7" transform="translate(464,780)"/>
<path d="M0 0 C0.99 0 1.98 0 3 0 C3 4.62 3 9.24 3 14 C2.01 14 1.02 14 0 14 C0 9.38 0 4.76 0 0 Z " fill="#3C9DD0" transform="translate(509,752)"/>
<path d="M0 0 C0 0.33 0 0.66 0 1 C-2.31 1.33 -4.62 1.66 -7 2 C-7.33 2.99 -7.66 3.98 -8 5 C-11 7 -11 7 -14 7 C-14.33 5.68 -14.66 4.36 -15 3 C-10.27805833 -0.77755334 -5.74071928 -0.30096975 0 0 Z " fill="#2F85B3" transform="translate(341,762)"/>
<path d="M0 0 C1.20628008 2.33214148 2.1654738 4.49642139 3 7 C4.98 7 6.96 7 9 7 C9.33 7.66 9.66 8.32 10 9 C6.7 9 3.4 9 0 9 C-1.125 6.75 -1.125 6.75 -2 4 C-1.125 1.6875 -1.125 1.6875 0 0 Z " fill="#2C8FC6" transform="translate(329,780)"/>
<path d="M0 0 C3.96 0 7.92 0 12 0 C12 0.66 12 1.32 12 2 C8.37 2.66 4.74 3.32 1 4 C0.67 2.68 0.34 1.36 0 0 Z " fill="#3EA6E0" transform="translate(404,774)"/>
<path d="M0 0 C1.98 0 3.96 0 6 0 C6.33 1.32 6.66 2.64 7 4 C4.23749964 5.38125018 2.05268901 5.19079306 -1 5 C-1.66 4.34 -2.32 3.68 -3 3 C-2.34 3 -1.68 3 -1 3 C-0.67 2.01 -0.34 1.02 0 0 Z " fill="#2D81B2" transform="translate(406,785)"/>
<path d="M0 0 C3.49928164 2.33285443 3.6329098 3.20795069 4.6875 7.125 C4.93886719 8.03507812 5.19023437 8.94515625 5.44921875 9.8828125 C5.72185547 10.93082031 5.72185547 10.93082031 6 12 C5.01 12.33 4.02 12.66 3 13 C2.49242138 11.58603098 1.99425075 10.16868271 1.5 8.75 C1.08234375 7.56664062 1.08234375 7.56664062 0.65625 6.359375 C0 4 0 4 0 0 Z " fill="#3F3E40" transform="translate(294,456)"/>
<path d="M0 0 C0.99 0.33 1.98 0.66 3 1 C2.979375 1.99 2.95875 2.98 2.9375 4 C2.92918572 8.06568074 3.43531533 11.97662176 4 16 C3.34 15.67 2.68 15.34 2 15 C1.3671875 12.63671875 1.3671875 12.63671875 0.875 9.6875 C0.70742188 8.72199219 0.53984375 7.75648438 0.3671875 6.76171875 C0 4 0 4 0 0 Z " fill="#61BADF" transform="translate(293,413)"/>
<path d="M0 0 C2.18975773 3.28463659 2.99806563 6.20696275 4 10 C3.01 10.33 2.02 10.66 1 11 C-0.62950412 6.87831311 -1.26264601 4.29299643 0 0 Z " fill="#74B6D4" transform="translate(492,391)"/>
<path d="M0 0 C0 0.99 0 1.98 0 3 C-0.99 3.495 -0.99 3.495 -2 4 C-2.66 3.67 -3.32 3.34 -4 3 C-4 3.66 -4 4.32 -4 5 C-5.65 5 -7.3 5 -9 5 C-9.33 4.34 -9.66 3.68 -10 3 C-6.73454239 1.11608215 -3.71888239 0.50712033 0 0 Z " fill="#FEE86B" transform="translate(519,380)"/>
<path d="M0 0 C2.31 0 4.62 0 7 0 C7.33 0.66 7.66 1.32 8 2 C7.34 2 6.68 2 6 2 C6.33 3.32 6.66 4.64 7 6 C5.02 5.34 3.04 4.68 1 4 C1.33 3.01 1.66 2.02 2 1 C1.34 0.67 0.68 0.34 0 0 Z " fill="#338EBE" transform="translate(366,762)"/>
<path d="M0 0 C2.64 0 5.28 0 8 0 C8.33 0.66 8.66 1.32 9 2 C12.02934491 2.65772428 12.02934491 2.65772428 15 3 C15 3.33 15 3.66 15 4 C9.01006953 4.3152595 5.36439644 3.68219822 0 1 C0 0.67 0 0.34 0 0 Z " fill="#46A9DC" transform="translate(476,591)"/>
<path d="M0 0 C0.33 0 0.66 0 1 0 C1.05437607 1.58294782 1.09296271 3.16644256 1.125 4.75 C1.14820313 5.63171875 1.17140625 6.5134375 1.1953125 7.421875 C0.99139502 10.1135858 0.36551721 11.69904974 -1 14 C-2.33500455 8.65998179 -1.512545 5.16044765 0 0 Z " fill="#2E2D30" transform="translate(735,425)"/>
<path d="M0 0 C0.66 0 1.32 0 2 0 C2.05395478 1.62463842 2.09277195 3.24978541 2.125 4.875 C2.14820313 5.77992188 2.17140625 6.68484375 2.1953125 7.6171875 C2 10 2 10 0 12 C-1.53166168 7.91556885 -0.63081652 4.20544343 0 0 Z " fill="#EDDA58" transform="translate(523,383)"/>
<path d="M0 0 C-0.33 1.32 -0.66 2.64 -1 4 C-1.33 3.34 -1.66 2.68 -2 2 C-2.556875 2.185625 -3.11375 2.37125 -3.6875 2.5625 C-6.399133 3.07551165 -8.34371039 2.6640724 -11 2 C-11 1.67 -11 1.34 -11 1 C-6.87831311 -0.62950412 -4.29299643 -1.26264601 0 0 Z " fill="#3996CA" transform="translate(418,785)"/>
<path d="M0 0 C0.99 0.33 1.98 0.66 3 1 C2 4 2 4 -1 6 C-1.99 6 -2.98 6 -4 6 C-2.84826645 3.53199953 -1.95216435 1.95216435 0 0 Z " fill="#3C9ACC" transform="translate(406,763)"/>
<path d="M0 0 C3 1 3 1 4.16796875 3.28515625 C4.50441406 4.20167969 4.84085937 5.11820312 5.1875 6.0625 C5.53167969 6.98160156 5.87585938 7.90070313 6.23046875 8.84765625 C6.48441406 9.55792969 6.73835938 10.26820313 7 11 C6.34 11 5.68 11 5 11 C4.16151196 9.54462432 3.32936066 8.08559627 2.5 6.625 C1.80390625 5.40683594 1.80390625 5.40683594 1.09375 4.1640625 C0 2 0 2 0 0 Z " fill="#50B2DF" transform="translate(316,484)"/>
<path d="M0 0 C0.042721 1.66611905 0.04063832 3.33382885 0 5 C-1 6 -1 6 -3.5625 6.0625 C-4.7690625 6.0315625 -4.7690625 6.0315625 -6 6 C-3.4 0 -3.4 0 0 0 Z " fill="#3097CE" transform="translate(528,783)"/>
<path d="M0 0 C1.5625 1.75 1.5625 1.75 3 4 C2.6875 6.25 2.6875 6.25 2 8 C0.68 7.67 -0.64 7.34 -2 7 C-1.34 4.69 -0.68 2.38 0 0 Z " fill="#3198D8" transform="translate(403,780)"/>
<path d="M0 0 C0.66 0.33 1.32 0.66 2 1 C1.04367001 2.29315061 0.08486149 3.58446853 -0.875 4.875 C-1.40867187 5.59429688 -1.94234375 6.31359375 -2.4921875 7.0546875 C-4 9 -4 9 -6 11 C-5.62671065 5.64951939 -4.0042343 3.49087093 0 0 Z " fill="#3792C4" transform="translate(648,763)"/>
<path d="M0 0 C0.66 0 1.32 0 2 0 C0.125 3.875 0.125 3.875 -1 5 C-1.23192865 6.51469448 -1.41215238 8.03754562 -1.5625 9.5625 C-1.64628906 10.38878906 -1.73007812 11.21507812 -1.81640625 12.06640625 C-1.87699219 12.70449219 -1.93757813 13.34257813 -2 14 C-2.33 14 -2.66 14 -3 14 C-3.08153933 12.41753293 -3.13943557 10.83383727 -3.1875 9.25 C-3.22230469 8.36828125 -3.25710938 7.4865625 -3.29296875 6.578125 C-2.94589665 3.52389051 -2.11745198 2.19435701 0 0 Z " fill="#213648" transform="translate(471,767)"/>
<path d="M0 0 C1.8871875 0.061875 1.8871875 0.061875 3.8125 0.125 C3.8125 0.455 3.8125 0.785 3.8125 1.125 C2.20375 1.24875 2.20375 1.24875 0.5625 1.375 C-3.52250175 2.19200035 -4.53641677 3.0811637 -7.1875 6.125 C-7.8475 6.125 -8.5075 6.125 -9.1875 6.125 C-7.20938974 1.56013016 -5.01716504 -0.16449721 0 0 Z " fill="#3484B0" transform="translate(590.1875,761.875)"/>
<path d="M0 0 C0.90105469 0.01804687 1.80210937 0.03609375 2.73046875 0.0546875 C3.41753906 0.07789063 4.10460937 0.10109375 4.8125 0.125 C4.8125 0.455 4.8125 0.785 4.8125 1.125 C4.22082031 1.15078125 3.62914062 1.1765625 3.01953125 1.203125 C-2.2595013 1.58204414 -5.29386661 2.23136661 -9.1875 6.125 C-8.875 4.25 -8.875 4.25 -8.1875 2.125 C-4.87379 -0.08414 -3.8428979 -0.09981553 0 0 Z " fill="#3682AD" transform="translate(410.1875,761.875)"/>
<path d="M0 0 C0.66 0 1.32 0 2 0 C2 1.65 2 3.3 2 5 C0.02 5.33 -1.96 5.66 -4 6 C-2.84826645 3.53199953 -1.95216435 1.95216435 0 0 Z " fill="#EBE068" transform="translate(506,377)"/>
<path d="M0 0 C3.63 0.33 7.26 0.66 11 1 C11 1.33 11 1.66 11 2 C7.37 2.66 3.74 3.32 0 4 C0 2.68 0 1.36 0 0 Z " fill="#3AA2DC" transform="translate(331,774)"/>
<path d="M0 0 C1.65 0 3.3 0 5 0 C4.67 0.99 4.34 1.98 4 3 C5.32 3.33 6.64 3.66 8 4 C5.36 4 2.72 4 0 4 C0 2.68 0 1.36 0 0 Z " fill="#39A4E1" transform="translate(649,773)"/>
<path d="M0 0 C-0.61875 0.0825 -1.2375 0.165 -1.875 0.25 C-4.13720728 0.79922538 -4.13720728 0.79922538 -5.125 2.8125 C-5.41375 3.534375 -5.7025 4.25625 -6 5 C-6.66666667 6.33333333 -7.33333333 7.66666667 -8 9 C-8.36190476 3.57142857 -8.36190476 3.57142857 -6.8125 1.125 C-4.43963721 -0.34781139 -2.74086056 -0.22223194 0 0 Z " fill="#B7E4F6" transform="translate(668,467)"/>
<path d="M0 0 C1.65 0 3.3 0 5 0 C4.67 0.66 4.34 1.32 4 2 C2.68 1.34 1.36 0.68 0 0 Z M1 2 C4 3 4 3 5 5 C3.02 5 1.04 5 -1 5 C-0.34 4.01 0.32 3.02 1 2 Z " fill="#2C7CA9" transform="translate(519,785)"/>
<path d="M0 0 C-2.93720508 1.52299523 -5.9168649 2.80100302 -9 4 C-9 3.01 -9 2.02 -9 1 C-6.04335481 -0.4783226 -3.25770263 -0.06032783 0 0 Z " fill="#307DAA" transform="translate(525,762)"/>
<path d="M0 0 C1.65 0 3.3 0 5 0 C4.67 0.99 4.34 1.98 4 3 C2.35 3.33 0.7 3.66 -1 4 C-0.67 2.68 -0.34 1.36 0 0 Z " fill="#3092C4" transform="translate(558,763)"/>
<path d="M0 0 C4 1 4 1 6 4 C5.67 4.99 5.34 5.98 5 7 C3.35 4.69 1.7 2.38 0 0 Z " fill="#3BA7DC" transform="translate(332,511)"/>
</svg>
